<svg xmlns="http://www.w3.org/2000/svg" width="109.394" height="117.46" viewBox="0 0 109.394 117.46">
  <path id="Path_135" data-name="Path 135" d="M213.536,143.625c-2.686-12.475-7.228-22.036-14.917-33.247a109.546,109.546,0,0,0-11.439-14.4c-3.764-4.213-8.207-8.773-13.5-13.85-.654-.639-1.474-1.441-2.029-2-.947-.964-1.321-.161-1.321-.161l-1.1,2.009-.078.138c-6.06,11.2-7.106,11.91-5.026,13.509-30.5,14.043-33.621,55.458-32.581,60.611-6.129,2.341-20.226,2.514-25.042,2.5a1.653,1.653,0,0,0-1.653,1.653v23.262a1.653,1.653,0,0,0,1.746,1.643c22.877-1.39,33.438-6.2,40.37-8.969,10.054-3.91,8.145-3.731,17.159,0,1.559.712,3.292,1.423,5.025,2.311a53.8,53.8,0,0,1,18.024,12.975c.464.476.928,1.093,1.394,1.6l2.793,3.348a1.531,1.531,0,0,0,2.355,0l2.8-3.358c.8-.988,1.471-1.817,2.109-2.665,14.16-18.846,15.592-33.829,15.6-35.839A53.022,53.022,0,0,0,213.536,143.625Zm-72.285-9.43c.347-2.489,2.6-5.688,5.893-9.242,5.027-5.509,13.172-12.621,17.331-6.578a17.12,17.12,0,0,1,4.683,8c1.56,6.222.688,12.087.866,11.91a3.049,3.049,0,0,0-.866.709C159.448,145.926,140.037,146.814,141.251,134.195Zm58.581,26.128a10.1,10.1,0,0,0-1.213.711c-2.427,1.067-6.758.534-11.439-.711a110.024,110.024,0,0,1-14.384-5.687c-2.079-.89-3.294-1.6-3.64-2.311a1.641,1.641,0,0,1,0-1.778c1.04-2.488,5.72-6.749,9.186-16.708a32.429,32.429,0,0,0,1.559-8.886c0-3.911.347-8.889,3.468-2.668.345,1.067,1.9,3.377,3.811,6.578,3.641,6.042,8.667,14.574,11.439,21.152C200.872,155.345,201.912,159.434,199.832,160.322Z" transform="translate(-104.85 -79.654)" fill="#fff" opacity="0.03"/>
</svg>
