<svg xmlns="http://www.w3.org/2000/svg" width="311.296" height="334.249" viewBox="0 0 311.296 334.249">
  <path id="Path_125" data-name="Path 125" d="M414.13,261.692c-7.643-35.5-20.568-62.706-42.448-94.608-8.383-13.153-19.232-26.3-32.552-40.971-10.712-11.989-23.355-24.965-38.408-39.411-1.862-1.818-4.194-4.1-5.774-5.7-2.7-2.744-3.758-.459-3.758-.459l-3.136,5.718-.223.392c-17.244,31.867-20.222,33.893-14.3,38.442-86.793,39.96-95.674,157.812-92.715,172.477-17.44,6.663-57.556,7.153-71.261,7.122a4.7,4.7,0,0,0-4.7,4.7v66.194a4.7,4.7,0,0,0,4.97,4.675c65.1-3.954,95.153-17.636,114.878-25.522,28.61-11.126,23.177-10.617,48.829,0,4.436,2.026,9.367,4.049,14.3,6.576a153.087,153.087,0,0,1,51.29,36.923c1.322,1.355,2.642,3.111,3.966,4.554l7.948,9.528a4.356,4.356,0,0,0,6.7,0l7.959-9.555c2.278-2.81,4.186-5.17,6-7.584,40.293-53.63,44.369-96.266,44.4-101.984C416.089,287.417,416.669,273.489,414.13,261.692Zm-205.7-26.834c.987-7.082,7.4-16.186,16.77-26.3,14.3-15.676,37.483-35.915,49.318-18.718,6.905,6.067,10.852,14.666,13.325,22.759,4.44,17.707,1.959,34.394,2.465,33.893a8.677,8.677,0,0,0-2.465,2.019C260.217,268.241,204.981,270.769,208.433,234.858Zm166.7,74.35a28.74,28.74,0,0,0-3.452,2.022c-6.906,3.037-19.232,1.521-32.552-2.022A313.1,313.1,0,0,1,298.2,293.026c-5.917-2.532-9.374-4.554-10.358-6.577-.988-1.517-.988-3.037,0-5.059,2.959-7.079,16.277-19.2,26.14-47.544.987-3.033,4.437-14.665,4.437-25.286,0-11.13.987-25.294,9.869-7.591.983,3.037,5.42,9.61,10.844,18.717,10.362,17.194,24.663,41.473,32.552,60.191C378.093,295.044,381.052,306.68,375.134,309.208Z" transform="translate(-104.85 -79.654)" fill="#fff" opacity="0.05"/>
</svg>
