<svg xmlns="http://www.w3.org/2000/svg" width="28.49" height="28.49" viewBox="0 0 28.49 28.49">
  <g id="Group_1402" data-name="Group 1402" transform="translate(-1748.01 -130.211)">
    <path id="Stroke_4" data-name="Stroke 4" d="M.5,14.745C.5,3.652,3.652.5,14.745.5S28.99,3.652,28.99,14.745,25.839,28.99,14.745,28.99.5,25.839.5,14.745Z" transform="translate(1747.51 129.711)" fill="#acacac" opacity="0.27"/>
    <g id="Group_1112" data-name="Group 1112" transform="translate(1754.66 136.377)">
      <path id="Path_88" data-name="Path 88" d="M281.5,338.856l-.4-2.172,2.8-1.212V339h-2.371Zm-.476-2.6-.447-2.423,3.32-1.44v2.615Zm-.525-2.848-.428-2.338,3.826-1.662v2.526Zm-.506-2.763-.495-2.692-.022-.118.1-.063,4.067-2.345.251-.144v3.667Zm10.519-1.566,4.144.979-.166,1.068-4.406,2.183Zm3.9,2.545-.277,1.8-4.273,2.054.17-1.684Zm-.351,2.294-.288,1.865-4.133,1.862.174-1.688Zm-.366,2.356L293.28,339H289.5l.089-.868Zm-9.4-12.443-.011,5.754,5.92-.61.255-2.552ZM284.286,330l0,1.492,5.728-.528.155-1.57Zm-.007,1.906v1.551l5.525-.417.163-1.658Zm0,1.969-.011,5.137h4.946l.55-5.548Z" transform="translate(-279.477 -323.835)" fill="#f5f6fa" fill-rule="evenodd"/>
    </g>
  </g>
</svg>
