<svg xmlns="http://www.w3.org/2000/svg" width="30" height="30" viewBox="0 0 30 30">
  <g id="Group_1407" data-name="Group 1407" transform="translate(0 0)">
    <g id="Group_1119" data-name="Group 1119">
      <g id="Group_828" data-name="Group 828">
        <g id="Group_826" data-name="Group 826">
          <path id="Stroke_4" data-name="Stroke 4" d="M.5,15.5C.5,3.819,3.819.5,15.5.5s15,3.319,15,15-3.319,15-15,15S.5,27.181.5,15.5Z" transform="translate(-0.5 -0.5)" fill="#2d2c2c"/>
        </g>
      </g>
    </g>
    <g id="Group_783" data-name="Group 783" transform="translate(5.51 8.465)">
      <g id="Group_736" data-name="Group 736">
        <rect id="Rectangle_167" data-name="Rectangle 167" width="15.947" height="10.164" rx="2.905" transform="translate(1.533 0)" fill="none" stroke="#f5f6fa" stroke-miterlimit="10" stroke-width="1"/>
        <rect id="Rectangle_174" data-name="Rectangle 174" width="15.947" height="10.164" rx="2.905" transform="translate(1.533 0)" fill="none"/>
        <rect id="Rectangle_168" data-name="Rectangle 168" width="19.014" height="1.468" rx="0.734" transform="translate(0 11.605)" fill="#f5f6fa"/>
        <path id="Path_38" data-name="Path 38" d="M733.27,543.347a.436.436,0,1,1-.435-.4A.419.419,0,0,1,733.27,543.347Z" transform="translate(-715.47 -531.009)" fill="#474546"/>
      </g>
    </g>
  </g>
</svg>
