<svg xmlns="http://www.w3.org/2000/svg" width="30" height="30" viewBox="0 0 30 30">
  <g id="Group_1408" data-name="Group 1408" transform="translate(0 0)">
    <g id="Group_1119" data-name="Group 1119">
      <g id="Group_828" data-name="Group 828">
        <g id="Group_826" data-name="Group 826">
          <path id="Stroke_4" data-name="Stroke 4" d="M.5,15.5C.5,3.819,3.819.5,15.5.5s15,3.319,15,15-3.319,15-15,15S.5,27.181.5,15.5Z" transform="translate(-0.5 -0.5)" fill="#2d2c2c"/>
        </g>
      </g>
    </g>
    <path id="Path_47" data-name="Path 47" d="M81.565,8.879v.009a3.419,3.419,0,0,1,.445,1.694v.656a11.758,11.758,0,0,1,4.242-.747,12.01,12.01,0,0,1,4.3.745l.005-.654a3.729,3.729,0,0,1,.458-1.851l.661-4.352a3.683,3.683,0,0,0-.832-3.007A4.083,4.083,0,0,0,87.729,0h-2.89a4.076,4.076,0,0,0-3.117,1.373,3.686,3.686,0,0,0-.831,3.007Z" transform="translate(-71.135 6.713)" fill="#f5f6fa"/>
    <path id="Path_48" data-name="Path 48" d="M20.514,224c-1.269,0-1.933,1.219-1.933,2.422v.721a.788.788,0,0,1-.329.656.628.628,0,0,1-.595.057,11.061,11.061,0,0,0-4.157-.748,10.886,10.886,0,0,0-4.1.748.627.627,0,0,1-.6-.057.791.791,0,0,1-.329-.656v-.721A2.262,2.262,0,0,0,6.354,224c-.656,0-1.014.777-1.014,1.173a1.411,1.411,0,0,0,.755,1.2c.042.019.089.039.139.057.378.151,1.08.431,1.08,1.236v1.562c0,.583.125,1.865,1.174,2.106a.371.371,0,0,0-.009.043v.777a.389.389,0,0,0,.389.389h.389a.389.389,0,0,0,.389-.389v-.776h7.771v.777a.389.389,0,0,0,.389.389h.389a.389.389,0,0,0,.389-.389v-.777c0-.011-.005-.02-.006-.031.957-.183,1.172-1.227,1.172-2.118v-1.562a1.375,1.375,0,0,1,1.076-1.237l.136-.056a1.373,1.373,0,0,0,.7-1.2A1.323,1.323,0,0,0,20.514,224Z" transform="translate(1.619 -209.127)" fill="#f5f6fa"/>
  </g>
</svg>
