<svg xmlns="http://www.w3.org/2000/svg" width="30" height="30" viewBox="0 0 30 30">
  <g id="Group_1119" data-name="Group 1119" transform="translate(0 0)">
    <g id="Group_828" data-name="Group 828">
      <g id="Group_826" data-name="Group 826">
        <path id="Stroke_4" data-name="Stroke 4" d="M.5,15.5C.5,3.819,3.819.5,15.5.5s15,3.319,15,15-3.319,15-15,15S.5,27.181.5,15.5Z" transform="translate(-0.5 -0.5)" fill="#2d2c2c"/>
        <g id="wrench_1_" data-name="wrench (1)" transform="translate(8.272 8.274)">
          <g id="Group_744" data-name="Group 744" transform="translate(0 0)">
            <g id="Group_743" data-name="Group 743" transform="translate(0)">
              <path id="Path_49" data-name="Path 49" d="M13.432,2.032a.394.394,0,0,0-.669-.223l-.557.558a.807.807,0,0,1-1.115,0,.788.788,0,0,1,0-1.115l.557-.557a.394.394,0,0,0-.223-.669A2.365,2.365,0,0,0,8.806,2.979L2.978,8.807h0a2.366,2.366,0,0,0-2.954,2.62.394.394,0,0,0,.669.223l.557-.558a.807.807,0,0,1,1.115,0,.788.788,0,0,1,0,1.115l-.557.557a.394.394,0,0,0,.223.669A2.365,2.365,0,0,0,4.65,10.479l5.828-5.828h0a2.366,2.366,0,0,0,2.954-2.62Z" transform="translate(0 -0.002)" fill="#f5f6fa"/>
            </g>
          </g>
          <g id="Group_746" data-name="Group 746" transform="translate(7.285 7.285)">
            <g id="Group_745" data-name="Group 745">
              <path id="Path_50" data-name="Path 50" d="M281.016,278.649a2.331,2.331,0,0,0-.6.088l-1.528-1.528-1.673,1.673,1.528,1.528a2.336,2.336,0,0,0-.088.6,2.365,2.365,0,1,0,2.365-2.365Zm1.293,2.286-.234.875a.4.4,0,0,1-.279.279l-.875.234a.394.394,0,0,1-.381-.1l-.64-.64a.394.394,0,0,1-.1-.381l.234-.875a.4.4,0,0,1,.279-.279l.875-.234a.392.392,0,0,1,.381.1l.64.64A.394.394,0,0,1,282.309,280.935Z" transform="translate(-277.211 -277.209)" fill="#f5f6fa"/>
            </g>
          </g>
          <g id="Group_748" data-name="Group 748" transform="translate(0 0)">
            <g id="Group_747" data-name="Group 747" transform="translate(0)">
              <path id="Path_51" data-name="Path 51" d="M4.65,2.955A2.374,2.374,0,0,0,4.037.67,2.423,2.423,0,0,0,.692.67,2.365,2.365,0,0,0,2.977,4.627L4.5,6.17,6.171,4.5ZM3.619,2.224,3.384,3.1a.4.4,0,0,1-.279.279l-.875.234a.394.394,0,0,1-.381-.1l-.64-.64a.394.394,0,0,1-.1-.381l.234-.875a.4.4,0,0,1,.279-.279L2.5,1.1a.393.393,0,0,1,.381.1l.64.64A.394.394,0,0,1,3.619,2.224Z" transform="translate(-0.001 0)" fill="#f5f6fa"/>
            </g>
          </g>
        </g>
      </g>
    </g>
  </g>
</svg>
