<svg xmlns="http://www.w3.org/2000/svg" width="31.5" height="31.5" viewBox="0 0 31.5 31.5">
  <g id="download" transform="translate(0.75 0.75)">
    <path id="Stroke_4" data-name="Stroke 4" d="M0,15C0,3.751,3.751,0,15,0S30,3.751,30,15,26.249,30,15,30,0,26.249,0,15Z" fill="none" stroke="#db143d" stroke-linecap="round" stroke-linejoin="round" stroke-miterlimit="10" stroke-width="1.5"/>
    <g id="Download-2" data-name="Download" transform="translate(7.041 7.439)">
      <path id="Download-3" data-name="Download" d="M7.345,3.812V.622A.612.612,0,0,1,8.565.538l.006.083v3.19h3.8A3.6,3.6,0,0,1,15.912,7.3l0,.172v4.01a3.6,3.6,0,0,1-3.368,3.636l-.166,0H3.533A3.59,3.59,0,0,1,0,11.635l0-.172v-4A3.606,3.606,0,0,1,3.36,3.816l.166,0h3.82V8.907L6.072,7.593a.6.6,0,0,0-.867,0,.665.665,0,0,0-.064.817l.064.078,2.316,2.4a.594.594,0,0,0,.808.057l.059-.057,2.316-2.4a.65.65,0,0,0,0-.9.6.6,0,0,0-.8-.061l-.069.061L8.571,8.907V3.812Z" fill="#2d2c2c"/>
    </g>
  </g>
</svg>
