<svg xmlns="http://www.w3.org/2000/svg" width="31.5" height="31.5" viewBox="0 0 31.5 31.5">
  <g id="about" transform="translate(0.75 0.75)">
    <path id="Stroke_4" data-name="Stroke 4" d="M0,15C0,3.751,3.751,0,15,0S30,3.751,30,15,26.249,30,15,30,0,26.249,0,15Z" fill="none" stroke="#2d2c2c" stroke-linecap="round" stroke-linejoin="round" stroke-miterlimit="10" stroke-width="1.5"/>
    <g id="Group_1196" data-name="Group 1196" transform="translate(7.342 6.85)">
      <path id="Path_128" data-name="Path 128" d="M118.688,87.8a11.205,11.205,0,0,0-1.9-4.233,13.947,13.947,0,0,0-1.456-1.833c-.479-.536-1.045-1.117-1.718-1.763-.083-.081-.188-.183-.258-.255-.121-.123-.168-.021-.168-.021l-.14.256-.01.018c-.772,1.426-.9,1.516-.64,1.72-3.883,1.788-4.281,7.061-4.148,7.717a12.19,12.19,0,0,1-3.188.319.21.21,0,0,0-.21.21v2.962a.21.21,0,0,0,.222.209,14.076,14.076,0,0,0,5.14-1.142c1.28-.5,1.037-.475,2.185,0,.2.091.419.181.64.294a6.849,6.849,0,0,1,2.295,1.652c.059.061.118.139.177.2l.356.426a.195.195,0,0,0,.3,0l.356-.428c.1-.126.187-.231.268-.339a8.878,8.878,0,0,0,1.986-4.563A6.75,6.75,0,0,0,118.688,87.8Zm-9.2-1.2a2.639,2.639,0,0,1,.75-1.177c.64-.7,1.677-1.607,2.207-.837a2.18,2.18,0,0,1,.6,1.018,5.548,5.548,0,0,1,.11,1.516.388.388,0,0,0-.11.09C111.8,88.092,109.33,88.2,109.485,86.6Zm7.459,3.327a1.283,1.283,0,0,0-.154.09,2.563,2.563,0,0,1-1.456-.09A14.008,14.008,0,0,1,113.5,89.2c-.265-.113-.419-.2-.463-.294a.209.209,0,0,1,0-.226,9.55,9.55,0,0,0,1.17-2.127,4.13,4.13,0,0,0,.2-1.131c0-.5.044-1.132.442-.34a8.156,8.156,0,0,0,.485.837,24.1,24.1,0,0,1,1.456,2.693C117.076,89.291,117.208,89.811,116.943,89.924Z" transform="translate(-104.85 -79.654)" fill="#2d2c2c"/>
    </g>
  </g>
</svg>
