<svg xmlns="http://www.w3.org/2000/svg" width="23.219" height="29.794" viewBox="0 0 23.219 29.794">
    <g>
        <g>
            <g fill="#db143d">
                <path d="M22.9-.334C2.7-.72 0-.334 0-.334V15.2c0-1.044.589-1.689 2.138-2.411l21.078-8.2z" opacity="0.4" transform="translate(-94.314 -0.033) translate(101.533 0.538) translate(-7.219) translate(0 0)"/>
                <path d="M16.064 26.122H7.1c-3.917 0-7.1-1.547-7.1-5.5v-8.59c0-1.044.589-1.689 2.138-2.411L21.005.2a1.467 1.467 0 0 1 2.035.59 1.53 1.53 0 0 1 .179.709v19.118c-.038 3.958-3.225 5.505-7.155 5.505z" transform="translate(-94.314 -0.033) translate(101.533 0.538) translate(-7.219) translate(0 3.167)"/>
            </g>
        </g>
        <g>
            <g>
                <path fill="none" stroke="#fff" stroke-linecap="round" stroke-linejoin="round" stroke-miterlimit="10" d="M3.63 10.136V8.48a.774.774 0 0 1 .776-.766H5.98a.774.774 0 0 1 .782.766v1.661a.665.665 0 0 0 .656.658h1.048a1.875 1.875 0 0 0 1.894-1.856V4.232A1.313 1.313 0 0 0 9.835 3.2L6.247.37A1.747 1.747 0 0 0 4.1.37L.525 3.209A1.3 1.3 0 0 0 0 4.237v4.706A1.875 1.875 0 0 0 1.894 10.8h1.049a.67.67 0 0 0 .677-.663" transform="translate(-94.314 -0.033) translate(100.924 13.832)"/>
            </g>
        </g>
    </g>
</svg>
