<svg xmlns="http://www.w3.org/2000/svg" width="23.219" height="29.797" viewBox="0 0 23.219 29.797">
    <defs>
        <style>
            .cls-3{fill:#fff}
        </style>
    </defs>
    <g id="Agency-tag-2" transform="translate(-94.314 0.021)">
        <g id="Iconly_Bulk_Bookmark" transform="translate(101.533 0.487)">
            <g id="Bookmark" fill="#db143d" transform="translate(-7.219)">
                <path id="Bookmark_2" d="M22.9-.334C2.7-.72.577-.442.179.266A1.582 1.582 0 0 0 0 .988V15.2c0-1.044.589-1.689 2.138-2.411l21.078-8.2z" opacity="0.4" transform="translate(0 0)"/>
                <path id="Bookmark-2" d="M16.064 26.122H7.1c-3.917 0-7.1-1.547-7.1-5.5v-8.59c0-1.044.589-1.689 2.138-2.411L21.005.2a1.467 1.467 0 0 1 2.035.59 1.53 1.53 0 0 1 .179.709v19.118c-.038 3.958-3.225 5.505-7.155 5.505z" transform="translate(0 3.167)"/>
            </g>
        </g>
        <g id="electric-car" transform="translate(98.076 -136.068)">
            <path id="Path_2" d="M13.814 154.81l.192-.192h.728a.459.459 0 0 0 0-.918h-.918a.459.459 0 0 0-.325.134l-.468.468-1.3-2.6a1.37 1.37 0 0 0-1.232-.761H5.2a1.37 1.37 0 0 0-1.232.761l-1.3 2.6-.468-.468a.459.459 0 0 0-.325-.134H.96a.459.459 0 0 0 0 .918h.728l.192.192a2.3 2.3 0 0 0-1.379 2.1v1.841a.459.459 0 0 0 .353.447q.285.068.565.131v1.286A1.379 1.379 0 0 0 2.8 162h.918a1.379 1.379 0 0 0 1.377-1.377v-.659a24.892 24.892 0 0 0 5.51 0v.659A1.379 1.379 0 0 0 11.979 162h.921a1.379 1.379 0 0 0 1.377-1.377v-1.286c.187-.042.569-.132.57-.132a.464.464 0 0 0 .348-.479v-1.807a2.3 2.3 0 0 0-1.379-2.1zm-9.024-2.692a.457.457 0 0 1 .411-.254h5.293a.457.457 0 0 1 .411.254l1.25 2.5H3.539zm-.616 8.5a.46.46 0 0 1-.459.459H2.8a.46.46 0 0 1-.459-.459v-1.091c.628.126 1.238.231 1.837.316zm9.183 0a.46.46 0 0 1-.459.459h-.918a.46.46 0 0 1-.459-.459v-.775c.6-.085 1.209-.19 1.837-.316zm.918-2.227a26.214 26.214 0 0 1-12.856 0v-1.477a1.379 1.379 0 0 1 1.381-1.377h10.1a1.379 1.379 0 0 1 1.376 1.377zm0 0" class="cls-3"/>
            <path id="Path_3" d="M62.913 331.44l-1.837-.459a.459.459 0 0 0-.223.891l1.837.459a.459.459 0 0 0 .223-.891zm0 0" class="cls-3" transform="translate(-58.169 -174.512)"/>
            <path id="Path_4" d="M332.73 330.981l-1.837.459a.459.459 0 1 0 .223.891l1.837-.459a.459.459 0 0 0-.223-.891zm0 0" class="cls-3" transform="translate(-319.944 -174.512)"/>
        </g>
    </g>
</svg>
