<svg id="clothes" xmlns="http://www.w3.org/2000/svg" width="30" height="30" viewBox="0 0 30 30">
  <g id="Group_1119" data-name="Group 1119">
    <g id="Group_828" data-name="Group 828">
      <g id="Group_826" data-name="Group 826">
        <path id="Stroke_4" data-name="Stroke 4" d="M.5,15.5C.5,3.819,3.819.5,15.5.5s15,3.319,15,15-3.319,15-15,15S.5,27.181.5,15.5Z" transform="translate(-0.5 -0.5)" fill="#2d2c2c"/>
        <path id="XMLID_1435_" d="M18.206,76.426,10.17,71.639v-.356a1.134,1.134,0,0,1,.588-.986,2.491,2.491,0,0,0,1.269-2.287A2.466,2.466,0,0,0,9.7,65.618a2.366,2.366,0,0,0-1.773.694,2.5,2.5,0,0,0-.742,1.794.563.563,0,1,0,1.126,0,1.34,1.34,0,0,1,.4-.96,1.265,1.265,0,0,1,.95-.371A1.318,1.318,0,0,1,10.9,68.053a1.335,1.335,0,0,1-.679,1.226,2.3,2.3,0,0,0-1.178,2v.356L1.009,76.426A2.1,2.1,0,0,0,0,78.226a2.054,2.054,0,0,0,2.023,2.08H17.192a2.054,2.054,0,0,0,2.023-2.08A2.1,2.1,0,0,0,18.206,76.426Zm-1.014,2.722H2.023a.911.911,0,0,1-.9-.923.93.93,0,0,1,.447-.8l8.034-4.786,8.034,4.786a.931.931,0,0,1,.447.8A.911.911,0,0,1,17.192,79.148Z" transform="translate(5.704 -59.198)" fill="#f5f6fa"/>
      </g>
    </g>
  </g>
</svg>
