<svg id="companies" xmlns="http://www.w3.org/2000/svg" width="30" height="30" viewBox="0 0 30 30">
  <g id="Group_1119" data-name="Group 1119">
    <g id="Group_828" data-name="Group 828">
      <g id="Group_826" data-name="Group 826">
        <path id="Stroke_4" data-name="Stroke 4" d="M.5,15.5C.5,3.819,3.819.5,15.5.5s15,3.319,15,15-3.319,15-15,15S.5,27.181.5,15.5Z" transform="translate(-0.5 -0.5)" fill="#2d2c2c"/>
        <path id="wheel" d="M13.922,6.152l-.781-.078a6.019,6.019,0,0,0-.211-.793l.636-.457a.6.6,0,0,0,.17-.791L13.256,3.2a.6.6,0,0,0-.77-.248l-.712.322a6.032,6.032,0,0,0-.582-.582l.322-.713a.6.6,0,0,0-.248-.77l-.832-.48A.6.6,0,0,0,9.642.9l-.457.636a5.927,5.927,0,0,0-.793-.211L8.313.543A.6.6,0,0,0,7.713,0H6.751a.6.6,0,0,0-.6.542l-.078.781a6.019,6.019,0,0,0-.793.211L4.823.9a.6.6,0,0,0-.791-.17l-.832.48a.6.6,0,0,0-.248.77l.322.712a5.9,5.9,0,0,0-.582.582l-.713-.322a.6.6,0,0,0-.77.249l-.48.832a.6.6,0,0,0,.17.791l.636.457a5.927,5.927,0,0,0-.211.793l-.781.078a.6.6,0,0,0-.543.6v.961a.6.6,0,0,0,.542.6l.781.078a6.019,6.019,0,0,0,.211.793L.9,9.642a.6.6,0,0,0-.17.791l.48.832a.6.6,0,0,0,.77.248l.712-.322a6.032,6.032,0,0,0,.582.582l-.322.713a.6.6,0,0,0,.248.77l.832.48a.6.6,0,0,0,.791-.17l.457-.636a5.927,5.927,0,0,0,.793.211l.078.781a.6.6,0,0,0,.6.542h.961a.6.6,0,0,0,.6-.542l.078-.781a6.019,6.019,0,0,0,.793-.211l.457.636a.6.6,0,0,0,.791.17l.832-.48a.6.6,0,0,0,.248-.77l-.322-.712a6.033,6.033,0,0,0,.582-.582l.713.322a.6.6,0,0,0,.77-.248l.48-.832a.6.6,0,0,0-.17-.791l-.636-.457a5.927,5.927,0,0,0,.211-.793l.781-.078a.6.6,0,0,0,.542-.6V6.751A.6.6,0,0,0,13.922,6.152ZM7.232,3.014A4.222,4.222,0,0,1,11.4,6.63H8.611a1.508,1.508,0,0,0-1.379-.9,1.491,1.491,0,0,0-.165.017l-1.4-2.425a4.193,4.193,0,0,1,1.564-.3ZM3.014,7.232A4.211,4.211,0,0,1,4.625,3.922l1.4,2.42a1.481,1.481,0,0,0,0,1.78l-1.4,2.42A4.21,4.21,0,0,1,3.014,7.232Zm4.219,4.219a4.181,4.181,0,0,1-1.564-.3l1.4-2.425a1.466,1.466,0,0,0,.164.017,1.508,1.508,0,0,0,1.379-.9H11.4A4.222,4.222,0,0,1,7.232,11.451Z" transform="translate(7.768 7.768)" fill="#f5f6fa"/>
      </g>
    </g>
  </g>
</svg>
