<svg id="fun" xmlns="http://www.w3.org/2000/svg" width="30" height="30" viewBox="0 0 30 30">
  <g id="Group_1119" data-name="Group 1119">
    <g id="Group_828" data-name="Group 828">
      <g id="Group_826" data-name="Group 826">
        <path id="Stroke_4" data-name="Stroke 4" d="M.5,15.5C.5,3.819,3.819.5,15.5.5s15,3.319,15,15-3.319,15-15,15S.5,27.181.5,15.5Z" transform="translate(-0.5 -0.5)" fill="#2d2c2c"/>
        <g id="Group_812" data-name="Group 812" transform="translate(9.255 8.465)">
          <path id="Path_54" data-name="Path 54" d="M11.489,69.482a.524.524,0,0,0-.674-.5,17.615,17.615,0,0,1-10.14,0,.524.524,0,0,0-.674.5v6.8a5.744,5.744,0,1,0,11.489,0ZM2.383,74.4a.524.524,0,0,1,.01-.529,1.505,1.505,0,0,1,1.294-.727h0a1.505,1.505,0,0,1,1.294.727.524.524,0,0,1-.447.8H2.839A.524.524,0,0,1,2.383,74.4Zm6.2,3.274a3.956,3.956,0,0,1-5.679,0,.524.524,0,0,1,.752-.73,2.909,2.909,0,0,0,4.175,0,.524.524,0,0,1,.752.73ZM9.106,74.4a.524.524,0,0,1-.457.267H6.955a.524.524,0,0,1-.447-.8A1.505,1.505,0,0,1,7.8,73.147h0a1.505,1.505,0,0,1,1.294.727A.524.524,0,0,1,9.106,74.4Z" transform="translate(0 -68.958)" fill="#f5f6fa"/>
        </g>
      </g>
    </g>
  </g>
</svg>
