<svg xmlns="http://www.w3.org/2000/svg" width="23.074" height="23.074" viewBox="0 0 23.074 23.074">
  <g id="Group_1416" data-name="Group 1416" transform="translate(-1663.242 -1321.045)">
    <path id="Stroke_4" data-name="Stroke 4" d="M0,11.037C0,2.76,2.76,0,11.037,0S22.074,2.76,22.074,11.037s-2.76,11.037-11.037,11.037S0,19.314,0,11.037Z" transform="translate(1663.742 1321.545)" fill="rgba(245,246,250,0.27)" stroke="#2d2c2c" stroke-linecap="round" stroke-linejoin="round" stroke-miterlimit="10" stroke-width="1"/>
    <path id="Path_131" data-name="Path 131" d="M43.481,179.141a.9.9,0,0,0-.664.273.893.893,0,0,0-.273.655v3.911a.932.932,0,0,0,.937.937.89.89,0,0,0,.66-.273.912.912,0,0,0,.268-.664v-3.911a.932.932,0,0,0-.928-.928Z" transform="translate(1625.832 1150.775)" fill="#2d2c2c"/>
    <path id="Path_132" data-name="Path 132" d="M128.927,1.392,129.573.2a.12.12,0,0,0-.045-.182.126.126,0,0,0-.182.054l-.655,1.2a4.562,4.562,0,0,0-3.657,0l-.655-1.2A.126.126,0,0,0,124.2.019a.12.12,0,0,0-.045.182l.646,1.191a3.988,3.988,0,0,0-1.565,1.4,3.527,3.527,0,0,0-.582,1.96h8.414a3.528,3.528,0,0,0-.582-1.96A4.005,4.005,0,0,0,128.927,1.392Zm-3.734,1.733a.341.341,0,0,1-.25.1.326.326,0,0,1-.246-.1.363.363,0,0,1,0-.5.327.327,0,0,1,.246-.1.354.354,0,0,1,.25.6Zm3.834,0a.326.326,0,0,1-.246.1.355.355,0,0,1,0-.71.327.327,0,0,1,.246.1.363.363,0,0,1,0,.5Z" transform="translate(1547.916 1325.014)" fill="#2d2c2c"/>
    <path id="Path_133" data-name="Path 133" d="M123.971,191.508a.993.993,0,0,0,1,1h.673l.009,2.065a.9.9,0,0,0,.273.664.893.893,0,0,0,.655.273.932.932,0,0,0,.937-.937v-2.065h1.255v2.065a.937.937,0,1,0,1.874,0v-2.065h.682a.956.956,0,0,0,.7-.291.965.965,0,0,0,.291-.71V185.45h-8.35Z" transform="translate(1546.633 1144.639)" fill="#2d2c2c"/>
    <path id="Path_134" data-name="Path 134" d="M443.3,179.141a.9.9,0,0,0-.655.268.889.889,0,0,0-.273.659v3.911a.9.9,0,0,0,.273.664.893.893,0,0,0,.655.273.932.932,0,0,0,.937-.937v-3.911a.889.889,0,0,0-.273-.659A.912.912,0,0,0,443.3,179.141Z" transform="translate(1236.941 1150.775)" fill="#2d2c2c"/>
  </g>
</svg>
