<svg xmlns="http://www.w3.org/2000/svg" width="28.49" height="28.49" viewBox="0 0 28.49 28.49">
  <g id="Group_1407" data-name="Group 1407" transform="translate(-1856.24 -316.99)">
    <path id="Stroke_4" data-name="Stroke 4" d="M.5,14.745C.5,3.652,3.652.5,14.745.5S28.99,3.652,28.99,14.745,25.838,28.99,14.745,28.99.5,25.838.5,14.745Z" transform="translate(1855.74 316.49)" fill="#acacac" opacity="0.27"/>
    <g id="Group_811" data-name="Group 811" transform="translate(1862.85 324.104)">
      <path id="Path_47" data-name="Path 47" d="M81.5,8.039v.008a3.1,3.1,0,0,1,.4,1.534v.594A10.646,10.646,0,0,1,85.741,9.5a10.874,10.874,0,0,1,3.893.675l0-.592A3.377,3.377,0,0,1,90.054,7.9l.6-3.94A3.335,3.335,0,0,0,89.9,1.242,3.7,3.7,0,0,0,87.078,0H84.461a3.691,3.691,0,0,0-2.823,1.243,3.338,3.338,0,0,0-.752,2.722Z" transform="translate(-78.353 0)" fill="#f5f6fa"/>
      <path id="Path_48" data-name="Path 48" d="M19.08,224c-1.149,0-1.751,1.1-1.751,2.193v.653a.714.714,0,0,1-.3.594.568.568,0,0,1-.539.052,10.015,10.015,0,0,0-3.764-.677,9.857,9.857,0,0,0-3.708.677.568.568,0,0,1-.539-.051.716.716,0,0,1-.3-.594v-.653A2.048,2.048,0,0,0,6.259,224c-.594,0-.919.7-.919,1.062a1.278,1.278,0,0,0,.683,1.091c.038.017.081.035.126.051.342.137.978.39.978,1.119v1.414c0,.528.114,1.689,1.063,1.907a.336.336,0,0,0-.008.039v.7a.352.352,0,0,0,.352.352h.352a.352.352,0,0,0,.352-.352v-.7h7.036v.7a.352.352,0,0,0,.352.352h.352a.352.352,0,0,0,.352-.352v-.7c0-.01,0-.018-.006-.028.866-.165,1.061-1.111,1.061-1.918v-1.414a1.245,1.245,0,0,1,.974-1.12l.123-.051a1.243,1.243,0,0,0,.633-1.091A1.2,1.2,0,0,0,19.08,224Z" transform="translate(-5.34 -216.612)" fill="#f5f6fa"/>
    </g>
  </g>
</svg>
