<svg xmlns="http://www.w3.org/2000/svg" width="28.49" height="28.49" viewBox="0 0 28.49 28.49">
  <g id="Group_1404" data-name="Group 1404" transform="translate(-330.74 -360.74)">
    <path id="Stroke_4" data-name="Stroke 4" d="M.5,14.745C.5,3.652,3.652.5,14.745.5S28.99,3.652,28.99,14.745,25.838,28.99,14.745,28.99.5,25.838.5,14.745Z" transform="translate(330.24 360.24)" fill="#acacac" opacity="0.27"/>
    <g id="Group_796" data-name="Group 796" transform="translate(233.52 138.061)">
      <g id="Group_806" data-name="Group 806" transform="translate(101.194 232.448)">
        <g id="Group_798" data-name="Group 798">
          <g id="Group_796-2" data-name="Group 796">
            <path id="Path_89" data-name="Path 89" d="M120.281,238.153a19.144,19.144,0,0,0-.107-2.085l-.023-.219.191-.111.27-.16c-.474-.623-1.185-1.165-1.37-1.626-.174-.435.119-.272.353-.238.141.02.134-.181.134-.181a19.247,19.247,0,0,0-6.008-1.066,9.079,9.079,0,0,0-6.918,2.676s-.18.2-3.429.387a2.016,2.016,0,0,0-2.083,1.535,2.151,2.151,0,0,1,.289-.657h1.2s.4.168-.188.807a5.294,5.294,0,0,1-1.349.1,3.746,3.746,0,0,0-.042.763l1.5.2v.351h.758a1.8,1.8,0,0,1,.082-.2,2.324,2.324,0,0,1,4.429.953h6.727a2.232,2.232,0,0,1,.218-.953,2.324,2.324,0,0,1,4.379.5l.508-.646.588.12-.1-.08ZM113.692,236a.1.1,0,0,1-.094.1l-1.18,0a.1.1,0,0,1,0-.191l1.184-.057C113.653,235.856,113.739,235.889,113.692,236Zm.642-.583-5.693.011a.37.37,0,0,1-.044.078.511.511,0,0,1-.388.16h-.131a.706.706,0,0,1-.646-.237h-.007s0,0,0-.006-.012-.016-.018-.026c-.072-.143.109-.613.111-.617a.914.914,0,0,1,.48-.572.533.533,0,0,1,.186-.034.4.4,0,0,1,.32.149,7.884,7.884,0,0,1,3.063-1.191,23.948,23.948,0,0,1,2.814-.044Zm4.521.583a.1.1,0,0,1-.094.1l-1.181,0a.1.1,0,0,1,0-.191l1.185-.057C118.815,235.856,118.9,235.889,118.855,236Zm-4.166-.571V233.1s3.061.238,3.689.69c0,0,.076,1.494.628,1.645Z" transform="translate(-101.194 -232.448)" fill="#f5f6fa"/>
          </g>
          <g id="Group_797" data-name="Group 797" transform="translate(0.049 4.653)">
            <path id="Path_90" data-name="Path 90" d="M101.387,247.059c-.015.062-.029.125-.039.189C101.359,247.184,101.372,247.121,101.387,247.059Z" transform="translate(-101.348 -247.059)" fill="#f5f6fa"/>
          </g>
        </g>
        <g id="Group_799" data-name="Group 799" transform="translate(19.317 3.404)">
          <path id="Path_91" data-name="Path 91" d="M162.255,243.312c.07.2.138.395.2.595q-.084.873-.244,1.727c-.083-.066-.167-.13-.25-.194a19.467,19.467,0,0,0-.11-2.122c.1-.059.2-.118.3-.179Z" transform="translate(-161.854 -243.138)" fill="#f5f6fa"/>
        </g>
        <g id="Group_800" data-name="Group 800" transform="translate(0.032 5.97)">
          <path id="Path_92" data-name="Path 92" d="M101.294,251.2a5.282,5.282,0,0,0,.2.961h1.931v-.418h-1v-.393Z" transform="translate(-101.294 -251.196)" fill="#f5f6fa"/>
        </g>
        <g id="Group_801" data-name="Group 801" transform="translate(13.828 4.97)">
          <path id="Path_93" data-name="Path 93" d="M146.608,248.056a1.993,1.993,0,1,0,1.992,1.993A1.993,1.993,0,0,0,146.608,248.056Zm0,3.155a1.162,1.162,0,1,1,1.162-1.163A1.164,1.164,0,0,1,146.608,251.211Z" transform="translate(-144.616 -248.056)" fill="#f5f6fa"/>
        </g>
        <g id="Group_802" data-name="Group 802" transform="translate(15.487 6.631)">
          <path id="Path_94" data-name="Path 94" d="M150.16,253.935a.332.332,0,1,1,.332-.332A.333.333,0,0,1,150.16,253.935Z" transform="translate(-149.828 -253.27)" fill="#f5f6fa"/>
        </g>
        <g id="Group_803" data-name="Group 803" transform="translate(2.454 4.97)">
          <path id="Path_95" data-name="Path 95" d="M110.891,248.056a1.993,1.993,0,1,0,1.992,1.993A1.993,1.993,0,0,0,110.891,248.056Zm0,3.155a1.162,1.162,0,1,1,1.163-1.163A1.164,1.164,0,0,1,110.891,251.211Z" transform="translate(-108.899 -248.056)" fill="#f5f6fa"/>
        </g>
        <g id="Group_804" data-name="Group 804" transform="translate(4.114 6.631)">
          <path id="Path_96" data-name="Path 96" d="M114.445,253.935a.332.332,0,1,1,.333-.332A.332.332,0,0,1,114.445,253.935Z" transform="translate(-114.113 -253.27)" fill="#f5f6fa"/>
        </g>
        <g id="Group_805" data-name="Group 805" transform="translate(18.169 6.208)">
          <path id="Path_97" data-name="Path 97" d="M159.653,252.112l-.835-.17-.569.724h1.27S159.579,252.444,159.653,252.112Z" transform="translate(-158.249 -251.942)" fill="#f5f6fa"/>
        </g>
      </g>
      <g id="Group_807" data-name="Group 807" transform="translate(107.561 234.347)">
        <path id="Path_98" data-name="Path 98" d="M122.142,239.318l-.1-.743c-.018-.133-.181-.2-.353-.141-.374.137-.516.917-.5.952.1.191.351.178.646.177C122.023,239.563,122.16,239.451,122.142,239.318Z" transform="translate(-121.188 -238.41)" fill="#f5f6fa"/>
      </g>
    </g>
  </g>
</svg>
