<svg xmlns="http://www.w3.org/2000/svg" width="16.146" height="20.107" viewBox="0 0 16.146 20.107">
  <g id="Group_1413" data-name="Group 1413" transform="translate(0.75 1.75)">
    <path id="Stroke_1" data-name="Stroke 1" d="M5.933.447H0" transform="translate(0 7.664)" fill="none" stroke="#fcc155" stroke-linecap="round" stroke-linejoin="round" stroke-miterlimit="10" stroke-width="1.5"/>
    <path id="Stroke_1-2" data-name="Stroke 1" d="M0,.447H5.933" transform="translate(8.713 14.664)" fill="none" stroke="#fcc155" stroke-linecap="round" stroke-linejoin="round" stroke-miterlimit="10" stroke-width="1.5"/>
    <path id="Stroke_3" data-name="Stroke 3" d="M0,2.495C0,4.367.624,4.99,2.495,4.99S4.99,4.367,4.99,2.495,4.366,0,2.495,0,0,.623,0,2.495Z" transform="translate(9.656 5.617)" fill="none" stroke="#fcc155" stroke-linecap="round" stroke-linejoin="round" stroke-miterlimit="10" stroke-width="1.5"/>
    <path id="Stroke_3-2" data-name="Stroke 3" d="M4.99,2.495c0,1.872-.624,2.495-2.495,2.495S0,4.367,0,2.495.624,0,2.495,0,4.99.623,4.99,2.495Z" transform="translate(0 12.617)" fill="none" stroke="#fcc155" stroke-linecap="round" stroke-linejoin="round" stroke-miterlimit="10" stroke-width="1.5"/>
    <path id="Stroke_5" data-name="Stroke 5" d="M0,.447H5.932" transform="translate(8.713 1.049)" fill="none" stroke="#fcc155" stroke-linecap="round" stroke-linejoin="round" stroke-miterlimit="10" stroke-width="1.5"/>
    <path id="Stroke_7" data-name="Stroke 7" d="M4.991,2.495C4.991.624,4.367,0,2.5,0S0,.624,0,2.495.624,4.99,2.5,4.99,4.991,4.367,4.991,2.495Z" transform="translate(0 -1)" fill="none" stroke="#fcc155" stroke-linecap="round" stroke-linejoin="round" stroke-miterlimit="10" stroke-width="1.5"/>
  </g>
</svg>
