<svg xmlns="http://www.w3.org/2000/svg" width="28.49" height="28.49" viewBox="0 0 28.49 28.49">
  <g id="Group_1406" data-name="Group 1406" transform="translate(-1856.24 -316.99)">
    <path id="Stroke_4" data-name="Stroke 4" d="M.5,14.745C.5,3.652,3.652.5,14.745.5S28.99,3.652,28.99,14.745,25.838,28.99,14.745,28.99.5,25.838.5,14.745Z" transform="translate(1855.74 316.49)" fill="#acacac" opacity="0.27"/>
    <g id="Group_783" data-name="Group 783" transform="translate(24018.953 -7224.244)">
      <g id="Group_736" data-name="Group 736" transform="translate(-22157.203 7548.944)">
        <rect id="Rectangle_167" data-name="Rectangle 167" width="14.681" height="10.164" rx="2.905" transform="translate(1.412 0)" fill="none" stroke="#f5f6fa" stroke-miterlimit="10" stroke-width="1"/>
        <rect id="Rectangle_174" data-name="Rectangle 174" width="14.681" height="10.164" rx="2.905" transform="translate(1.412 0)" fill="none"/>
        <rect id="Rectangle_168" data-name="Rectangle 168" width="17.504" height="1.468" rx="0.734" transform="translate(0 11.605)" fill="#f5f6fa"/>
        <path id="Path_38" data-name="Path 38" d="M733.2,543.347a.4.4,0,1,1-.4-.4A.4.4,0,0,1,733.2,543.347Z" transform="translate(-716.815 -531.009)" fill="#474546"/>
      </g>
    </g>
  </g>
</svg>
