<svg xmlns="http://www.w3.org/2000/svg" width="28.49" height="28.49" viewBox="0 0 28.49 28.49">
  <g id="Group_1408" data-name="Group 1408" transform="translate(-332.5 -312.5)">
    <path id="Stroke_4" data-name="Stroke 4" d="M.5,14.745C.5,3.652,3.652.5,14.745.5S28.99,3.652,28.99,14.745,25.838,28.99,14.745,28.99.5,25.838.5,14.745Z" transform="translate(332 312)" fill="#acacac" opacity="0.27"/>
    <g id="wrench_1_" data-name="wrench (1)" transform="translate(341.172 321.186)">
      <g id="Group_744" data-name="Group 744" transform="translate(0 0)">
        <g id="Group_743" data-name="Group 743" transform="translate(0)">
          <path id="Path_49" data-name="Path 49" d="M11.646,1.762a.342.342,0,0,0-.58-.194l-.483.484a.7.7,0,0,1-.967,0,.683.683,0,0,1,0-.967L10.1.6a.342.342,0,0,0-.194-.58A2.051,2.051,0,0,0,7.635,2.583L2.582,7.636h0A2.051,2.051,0,0,0,.02,9.907.342.342,0,0,0,.6,10.1l.483-.484a.7.7,0,0,1,.967,0,.683.683,0,0,1,0,.967l-.483.483a.342.342,0,0,0,.194.58A2.051,2.051,0,0,0,4.032,9.086L9.085,4.033h0a2.051,2.051,0,0,0,2.561-2.271Z" transform="translate(0 -0.002)" fill="#f5f6fa"/>
        </g>
      </g>
      <g id="Group_746" data-name="Group 746" transform="translate(6.316 6.316)">
        <g id="Group_745" data-name="Group 745">
          <path id="Path_50" data-name="Path 50" d="M280.51,278.457a2.022,2.022,0,0,0-.524.076l-1.325-1.324-1.45,1.45,1.324,1.325a2.024,2.024,0,0,0-.076.524,2.051,2.051,0,1,0,2.051-2.051Zm1.121,1.982-.2.758a.342.342,0,0,1-.242.242l-.758.2a.342.342,0,0,1-.33-.088l-.555-.555a.341.341,0,0,1-.088-.33l.2-.758a.342.342,0,0,1,.242-.242l.758-.2a.34.34,0,0,1,.33.089l.555.555A.341.341,0,0,1,281.631,280.44Z" transform="translate(-277.211 -277.209)" fill="#f5f6fa"/>
        </g>
      </g>
      <g id="Group_748" data-name="Group 748" transform="translate(0 0)">
        <g id="Group_747" data-name="Group 747" transform="translate(0)">
          <path id="Path_51" data-name="Path 51" d="M4.031,2.562A2.059,2.059,0,0,0,3.5.581a2.1,2.1,0,0,0-2.9,0A2.051,2.051,0,0,0,2.581,4.012L3.9,5.349,5.35,3.9Zm-.894-.634-.2.758a.342.342,0,0,1-.242.242l-.758.2a.341.341,0,0,1-.33-.088l-.555-.555a.341.341,0,0,1-.088-.33l.2-.758a.342.342,0,0,1,.242-.242l.758-.2a.341.341,0,0,1,.33.088l.555.555A.341.341,0,0,1,3.137,1.928Z" transform="translate(-0.001 0)" fill="#f5f6fa"/>
        </g>
      </g>
    </g>
  </g>
</svg>
