<svg xmlns="http://www.w3.org/2000/svg" width="28.49" height="28.49" viewBox="0 0 28.49 28.49">
  <g id="Group_1411" data-name="Group 1411" transform="translate(-332.5 -312.5)">
    <path id="Stroke_4" data-name="Stroke 4" d="M.5,14.745C.5,3.652,3.652.5,14.745.5S28.99,3.652,28.99,14.745,25.838,28.99,14.745,28.99.5,25.838.5,14.745Z" transform="translate(332 312)" fill="#acacac" opacity="0.27"/>
    <g id="Group_812" data-name="Group 812" transform="translate(341.375 320.637)">
      <path id="Path_54" data-name="Path 54" d="M10.74,69.448a.49.49,0,0,0-.631-.469,16.468,16.468,0,0,1-9.479,0,.49.49,0,0,0-.63.469v6.357a5.37,5.37,0,0,0,10.74,0Zm-8.513,4.6a.49.49,0,0,1,.009-.495,1.407,1.407,0,0,1,1.21-.679h0a1.407,1.407,0,0,1,1.21.679.49.49,0,0,1-.418.745H2.654A.49.49,0,0,1,2.227,74.048Zm5.8,3.06a3.7,3.7,0,0,1-5.309,0,.49.49,0,0,1,.7-.682,2.719,2.719,0,0,0,3.9,0,.49.49,0,0,1,.7.682Zm.488-3.06a.49.49,0,0,1-.427.25H6.5a.49.49,0,0,1-.418-.745,1.407,1.407,0,0,1,1.21-.679h0a1.407,1.407,0,0,1,1.21.679A.49.49,0,0,1,8.513,74.048Z" transform="translate(0 -68.958)" fill="#f5f6fa"/>
    </g>
  </g>
</svg>
