<svg xmlns="http://www.w3.org/2000/svg" width="28.49" height="28.49" viewBox="0 0 28.49 28.49">
  <g id="Group_1410" data-name="Group 1410" transform="translate(-332.5 -312.5)">
    <path id="Stroke_4" data-name="Stroke 4" d="M.5,14.745C.5,3.652,3.652.5,14.745.5S28.99,3.652,28.99,14.745,25.838,28.99,14.745,28.99.5,25.838.5,14.745Z" transform="translate(332 312)" fill="#acacac" opacity="0.27"/>
    <path id="wheel" d="M12.035,5.318l-.675-.068a5.2,5.2,0,0,0-.182-.686l.55-.4a.52.52,0,0,0,.147-.684l-.416-.719a.52.52,0,0,0-.665-.215l-.616.278a5.215,5.215,0,0,0-.5-.5l.278-.616a.52.52,0,0,0-.215-.665L9.018.63a.52.52,0,0,0-.684.147l-.4.55a5.124,5.124,0,0,0-.686-.182L7.186.469A.52.52,0,0,0,6.667,0H5.836a.519.519,0,0,0-.518.469l-.068.675a5.2,5.2,0,0,0-.686.182l-.4-.55A.52.52,0,0,0,3.485.63l-.719.415a.52.52,0,0,0-.215.666l.278.616a5.1,5.1,0,0,0-.5.5L1.71,2.551a.52.52,0,0,0-.665.215L.63,3.485a.52.52,0,0,0,.147.684l.55.4a5.124,5.124,0,0,0-.182.686l-.675.068A.52.52,0,0,0,0,5.837v.831a.519.519,0,0,0,.469.518l.675.068a5.2,5.2,0,0,0,.182.686l-.55.4a.52.52,0,0,0-.147.684l.415.719a.519.519,0,0,0,.665.215l.616-.278a5.215,5.215,0,0,0,.5.5l-.278.616a.52.52,0,0,0,.215.665l.719.415a.518.518,0,0,0,.684-.147l.4-.55a5.124,5.124,0,0,0,.686.182l.068.675a.521.521,0,0,0,.519.469h.831a.519.519,0,0,0,.518-.469l.068-.675a5.2,5.2,0,0,0,.686-.182l.4.55a.52.52,0,0,0,.684.147l.719-.415a.52.52,0,0,0,.215-.665l-.278-.616a5.215,5.215,0,0,0,.5-.5l.616.278a.52.52,0,0,0,.665-.215l.415-.719a.52.52,0,0,0-.147-.684l-.55-.4a5.124,5.124,0,0,0,.182-.686l.675-.068a.521.521,0,0,0,.469-.519V5.836A.519.519,0,0,0,12.035,5.318ZM6.252,2.6A3.649,3.649,0,0,1,9.857,5.731H7.444a1.3,1.3,0,0,0-1.192-.781,1.289,1.289,0,0,0-.142.015L4.9,2.868A3.625,3.625,0,0,1,6.252,2.6ZM2.6,6.252A3.641,3.641,0,0,1,4,3.39L5.206,5.482a1.28,1.28,0,0,0,0,1.539L4,9.113A3.639,3.639,0,0,1,2.6,6.252ZM6.252,9.9A3.615,3.615,0,0,1,4.9,9.636l1.21-2.1a1.267,1.267,0,0,0,.142.015,1.3,1.3,0,0,0,1.192-.781H9.857A3.649,3.649,0,0,1,6.252,9.9Z" transform="translate(340.494 320.494)" fill="#f5f6fa"/>
  </g>
</svg>
