<svg xmlns="http://www.w3.org/2000/svg" width="28.49" height="28.49" viewBox="0 0 28.49 28.49">
  <g id="Group_1412" data-name="Group 1412" transform="translate(-332.5 -312.5)">
    <path id="Stroke_4" data-name="Stroke 4" d="M.5,14.745C.5,3.652,3.652.5,14.745.5S28.99,3.652,28.99,14.745,25.838,28.99,14.745,28.99.5,25.838.5,14.745Z" transform="translate(332 312)" fill="#acacac" opacity="0.27"/>
    <g id="world" transform="translate(339.604 312.949)">
      <path id="Path_55" data-name="Path 55" d="M51.613,71.445a3.953,3.953,0,0,1-2.6-1.28c-.383-.342-.714-.636-.98-.638h-.306l.017-.306a4.963,4.963,0,0,1,4.952-4.685q.154,0,.306.009h.1l.076.07a1.575,1.575,0,0,1,.05,2.476,10.34,10.34,0,0,1-1.075,1,4.58,4.58,0,0,0-1.145,1.2.472.472,0,0,0-.007.469,1.473,1.473,0,0,0,.706.516,3.268,3.268,0,0,1,.8.45h.039l.176.227-.093.36h-.173a2.221,2.221,0,0,1-.752.122Z" transform="translate(-45.986 -55.532)" fill="#f5f6fa"/>
      <path id="Path_56" data-name="Path 56" d="M52.775,73.305a4.963,4.963,0,0,1-4.961-4.789l-.01-.31.31.009c.336.009.666.3,1.082.674a3.758,3.758,0,0,0,2.49,1.238h.087A1.96,1.96,0,0,0,52.516,70c.055-.029.087-.06.095-.09s.012-.047-.048-.119a2.407,2.407,0,0,0-.842-.511,1.679,1.679,0,0,1-.7-.5.667.667,0,0,1-.067-.689,4.435,4.435,0,0,1,1.186-1.257,10.309,10.309,0,0,0,1.053-.985c.647-.737.728-1.311.291-1.893l-.457-.612.749.146a4.934,4.934,0,0,1,2.005.9l.162.122-.379,1.254.4.4.59-1.07.268.377a4.929,4.929,0,0,1,.8,1.8l.048.22-.2.1c-.775.393-.8.616-.851,1.02-.054.437-.127,1.052-1.426,2.135a3.743,3.743,0,0,0-.9.995,1.641,1.641,0,0,0-.185,1.107l.045.278-.268.061A4.988,4.988,0,0,1,52.775,73.305Z" transform="translate(-46.063 -54.376)" fill="none"/>
      <path id="Path_57" data-name="Path 57" d="M249.246,15.968l.246-.814-1.043-.982L247.3,16.247l-.622-.622.738-2.431-.885-.835a.6.6,0,0,1-.153-.67.746.746,0,0,1,.395-.395h.015a.6.6,0,0,1,.213-.039.605.605,0,0,1,.437.2l.833.884L250.7,11.6l.622.622-2.075,1.146.982,1.041.816-.246.505.505-.989.549-.176.087-.08.163-.561,1Z" transform="translate(-237.363 -4.192)" fill="#f5f6fa"/>
      <path id="Path_58" data-name="Path 58" d="M215.516,177.9a1.8,1.8,0,0,1,.213-1.165,3.889,3.889,0,0,1,.952-1.043c1.25-1.043,1.311-1.59,1.369-2.032.048-.4.134-.706.813-1.079l.377-.207.047.428a5.03,5.03,0,0,1,.036.609,4.931,4.931,0,0,1-1.456,3.51,4.986,4.986,0,0,1-1.968,1.209l-.331.108Z" transform="translate(-207.649 -159.445)" fill="#f5f6fa"/>
      <g id="Group_767" data-name="Group 767" transform="translate(0 6.906)">
        <path id="Path_59" data-name="Path 59" d="M52.553,321.843a.218.218,0,0,0,0,.309,5.565,5.565,0,0,0,.454.412.218.218,0,1,0,.309-.309l-.018-.016-.015-.012c-.146-.121-.291-.25-.425-.384A.218.218,0,0,0,52.553,321.843Z" transform="translate(-50.578 -310.315)" fill="#f5f6fa"/>
        <path id="Path_60" data-name="Path 60" d="M1.414,156.954h.028a.218.218,0,0,0,.217-.192c.023-.189.055-.38.1-.565a.218.218,0,1,0-.421-.092c-.044.2-.077.4-.1.6A.218.218,0,0,0,1.414,156.954Z" transform="translate(-1.185 -150.472)" fill="#f5f6fa"/>
        <path id="Path_61" data-name="Path 61" d="M25.257,286.554a.218.218,0,0,0-.076.3h0c.1.175.218.347.339.511a.218.218,0,0,0,.352-.258c-.112-.154-.218-.315-.316-.478a.218.218,0,0,0-.3-.076Z" transform="translate(-24.235 -276.341)" fill="#f5f6fa"/>
        <path id="Path_62" data-name="Path 62" d="M7.15,245.615a.218.218,0,0,0-.146.271c.058.2.125.39.2.583a.222.222,0,0,0,.412-.165h0c-.07-.176-.134-.358-.188-.542a.218.218,0,0,0-.271-.146Z" transform="translate(-6.741 -236.916)" fill="#f5f6fa"/>
        <path id="Path_63" data-name="Path 63" d="M12.46,115.715a.219.219,0,0,0,.284-.122h0a5.235,5.235,0,0,1,.234-.523.219.219,0,0,0-.39-.2h0c-.092.182-.176.37-.251.561A.218.218,0,0,0,12.46,115.715Z" transform="translate(-11.874 -110.826)" fill="#f5f6fa"/>
        <path id="Path_64" data-name="Path 64" d="M.258,202.538H.294a.219.219,0,0,0,.189-.244h0c-.023-.189-.039-.382-.047-.571a.219.219,0,0,0-.437.016,4.777,4.777,0,0,0,.05.612A.218.218,0,0,0,.258,202.538Z" transform="translate(0 -194.426)" fill="#f5f6fa"/>
        <path id="Path_65" data-name="Path 65" d="M143.488,17.863h.042c.188-.036.379-.064.568-.083a.22.22,0,0,0-.015-.44l-.028,0c-.2.02-.406.05-.607.089a.22.22,0,1,0,.011.44l.03,0Z" transform="translate(-138.019 -16.961)" fill="#f5f6fa"/>
        <path id="Path_66" data-name="Path 66" d="M33.721,78.276a.218.218,0,0,0,.178-.09c.112-.154.232-.306.357-.449a.22.22,0,0,0-.318-.3l-.011.012a5.22,5.22,0,0,0-.382.481.218.218,0,0,0,.176.347Z" transform="translate(-32.283 -74.8)" fill="#f5f6fa"/>
        <path id="Path_67" data-name="Path 67" d="M189.57,17.146h.034a.219.219,0,1,0,.032-.437c-.2-.031-.406-.052-.61-.064a.219.219,0,1,0-.026.437C189.191,17.1,189.382,17.117,189.57,17.146Z" transform="translate(-181.919 -16.29)" fill="#f5f6fa"/>
        <path id="Path_68" data-name="Path 68" d="M64.4,48.767c.146-.122.3-.239.457-.347a.218.218,0,0,0-.248-.36c-.167.115-.332.24-.489.37a.219.219,0,1,0,.28.336Z" transform="translate(-61.705 -46.528)" fill="#f5f6fa"/>
        <path id="Path_69" data-name="Path 69" d="M102.029,27.906a.218.218,0,0,0,.093-.022c.172-.082.35-.156.529-.221a.218.218,0,0,0-.115-.421l-.031.01a5.437,5.437,0,0,0-.565.237.218.218,0,0,0,.093.417Z" transform="translate(-98.106 -26.497)" fill="#f5f6fa"/>
        <path id="Path_70" data-name="Path 70" d="M173.466,373.018a.219.219,0,1,0-.012.437h.182c.146,0,.291,0,.428-.013a.219.219,0,1,0-.028-.437A5.408,5.408,0,0,1,173.466,373.018Z" transform="translate(-166.934 -359.674)" fill="#f5f6fa"/>
        <path id="Path_71" data-name="Path 71" d="M346.554,240.133a.218.218,0,0,0,.279-.132h0c.068-.192.128-.389.179-.583a.219.219,0,1,0-.417-.131.247.247,0,0,0-.007.029c-.047.185-.1.368-.167.548A.219.219,0,0,0,346.554,240.133Z" transform="translate(-333.798 -230.678)" fill="#f5f6fa"/>
        <path id="Path_72" data-name="Path 72" d="M351.156,151.2h.036a.219.219,0,0,0,.181-.25c-.034-.2-.076-.4-.127-.6a.218.218,0,0,0-.422.111c.048.184.087.373.119.561A.218.218,0,0,0,351.156,151.2Z" transform="translate(-338.045 -144.972)" fill="#f5f6fa"/>
        <path id="Path_73" data-name="Path 73" d="M54.5,7.277l-2.32.7L51.4,7.15a.706.706,0,0,0-.8-.191h-.013a.86.86,0,0,0-.468.468.79.79,0,0,0-.047.172l-.089-.031a.219.219,0,1,0-.134.417h0c.112.036.224.077.336.119a.835.835,0,0,0,.118.146l.826.781-.236.779h0a5.133,5.133,0,1,0,1.085,1.046l.373-.673.865.816L53,11.687a.211.211,0,0,0,.048.216s.427.422.437.437a.211.211,0,0,0,.289-.074l0,0h0l.569-1.044,1.028-.561a.213.213,0,0,0,.063-.342l-.383-.406a.211.211,0,0,0-.211-.052l-.7.211L53.331,9.2l1.831-1.019a.213.213,0,0,0,.063-.342l-.514-.514A.213.213,0,0,0,54.5,7.277ZM44.6,10.659A4.677,4.677,0,0,1,47.917,9.29q.146,0,.291.009a1.306,1.306,0,0,1,.029,2.083,10.216,10.216,0,0,1-1.049.967,4.6,4.6,0,0,0-1.228,1.311c-.224.507-.06.966.846,1.366a2.381,2.381,0,0,1,.8.475c.013.016.026,0,.023,0a.087.087,0,0,0-.029.007,1.81,1.81,0,0,1-.687.118,3.546,3.546,0,0,1-2.488-1.2c-.437-.389-.8-.712-1.177-.715A4.677,4.677,0,0,1,44.6,10.659Zm8.01,3.318a4.7,4.7,0,0,1-3.241,4.461,1.528,1.528,0,0,1,.179-.992,3.61,3.61,0,0,1,.874-.961c1.344-1.121,1.42-1.748,1.478-2.23.036-.3.064-.532.666-.862a4.749,4.749,0,0,1,.036.583ZM52.342,12.4a4.653,4.653,0,0,1,.16.561c-.916.466-.957.8-1.012,1.251-.05.408-.114.941-1.328,1.955a3.982,3.982,0,0,0-.976,1.082,1.932,1.932,0,0,0-.218,1.3,4.693,4.693,0,0,1-5.735-4.409c.232,0,.532.275.9.6a3.93,3.93,0,0,0,2.792,1.311,2.187,2.187,0,0,0,.874-.166.437.437,0,0,0,.242-.274.416.416,0,0,0-.1-.38,2.72,2.72,0,0,0-.953-.6c-.616-.272-.75-.537-.629-.808a4.529,4.529,0,0,1,1.113-1.165,10.6,10.6,0,0,0,1.094-1.019,1.656,1.656,0,0,0,.3-2.276,4.662,4.662,0,0,1,1.893.861l-.335,1.105a.212.212,0,0,0,.051.216s.543.539.561.549a.211.211,0,0,0,.289-.074l0,0h0l.424-.766A4.685,4.685,0,0,1,52.342,12.4Zm.542-3.437a.211.211,0,0,0-.088.285l0,.006h0c.009.016,1.123,1.2,1.123,1.2a.211.211,0,0,0,.216.057h0l.7-.213.109.109-.655.363-.188.093a.21.21,0,0,0-.1.1h0l-.093.189-.363.655-.106-.117.211-.7a.211.211,0,0,0-.068-.224L52.442,9.689a.211.211,0,0,0-.3,0h0c-.015.016-1.049,1.879-1.049,1.879l-.226-.226.7-2.323a.211.211,0,0,0-.068-.226l-.92-.852a.3.3,0,0,1-.083-.35.457.457,0,0,1,.237-.236h.007a.3.3,0,0,1,.341.087l.874.923a.211.211,0,0,0,.216.058h0l2.33-.7.226.226Z" transform="translate(-41.215 -6.906)" fill="#f5f6fa"/>
        <path id="Path_74" data-name="Path 74" d="M326.82,281a.218.218,0,0,0-.291.086c-.092.167-.192.332-.3.489a.219.219,0,1,0,.358.252c.114-.169.221-.345.32-.523a.218.218,0,0,0-.077-.3Z" transform="translate(-314.312 -270.993)" fill="#f5f6fa"/>
        <path id="Path_75" data-name="Path 75" d="M356.381,195.033c.019-.2.028-.408.028-.612v-.031a.218.218,0,0,0-.218-.217h0a.218.218,0,0,0-.224.213s0,0,0,0v.034c0,.191-.009.383-.026.574a.218.218,0,0,0,.2.237h.021A.218.218,0,0,0,356.381,195.033Z" transform="translate(-342.979 -187.355)" fill="#f5f6fa"/>
        <path id="Path_76" data-name="Path 76" d="M129.011,366.524a.219.219,0,1,0-.146.412h.026c.2.055.4.1.6.146h.041a.22.22,0,1,0,.071-.434l-.03,0A4.507,4.507,0,0,1,129.011,366.524Z" transform="translate(-124.033 -353.418)" fill="#f5f6fa"/>
        <path id="Path_77" data-name="Path 77" d="M218.519,364.639a4.351,4.351,0,0,1-.552.146.219.219,0,1,0,.1.427c.2-.045.4-.1.591-.163a.218.218,0,0,0-.135-.415v.006Z" transform="translate(-209.866 -351.6)" fill="#f5f6fa"/>
        <path id="Path_78" data-name="Path 78" d="M87.951,348.827a.218.218,0,1,0-.244.362l.023.013c.176.1.358.2.543.291a.219.219,0,0,0,.186-.4C88.286,349.014,88.115,348.921,87.951,348.827Z" transform="translate(-84.42 -336.342)" fill="#f5f6fa"/>
        <path id="Path_79" data-name="Path 79" d="M297.162,317.2a5.293,5.293,0,0,1-.411.4.219.219,0,1,0,.291.326c.146-.135.3-.28.437-.428a.218.218,0,0,0-.319-.3Z" transform="translate(-285.876 -305.835)" fill="#f5f6fa"/>
        <path id="Path_80" data-name="Path 80" d="M260.4,345.9c-.16.1-.328.2-.5.291a.219.219,0,1,0,.2.389c.181-.093.36-.2.532-.306a.218.218,0,0,0-.224-.374Z" transform="translate(-250.323 -333.531)" fill="#f5f6fa"/>
      </g>
    </g>
  </g>
</svg>
