<svg xmlns="http://www.w3.org/2000/svg" width="23.074" height="23.074" viewBox="0 0 23.074 23.074">
  <g id="Group_1412" data-name="Group 1412" transform="translate(-1663.242 -1321.045)">
    <path id="Stroke_4" data-name="Stroke 4" d="M0,11.037C0,2.76,2.76,0,11.037,0S22.074,2.76,22.074,11.037s-2.76,11.037-11.037,11.037S0,19.314,0,11.037Z" transform="translate(1663.742 1321.545)" fill="rgba(245,246,250,0.27)" stroke="#2d2c2c" stroke-linecap="round" stroke-linejoin="round" stroke-miterlimit="10" stroke-width="1"/>
    <path id="XMLID_61_" d="M682.415,77.644a57.466,57.466,0,0,1-9.108-3.48,3.64,3.64,0,0,0-3.634,3.373.949.949,0,0,0-.007.14V81.79a.91.91,0,0,0,.913.913h.02a.91.91,0,0,0,.913-.913V77.81h.007a1.814,1.814,0,0,1,3.627,0h.007v3.36a.91.91,0,0,0,.913.913h.02A.91.91,0,0,0,677,81.17V77.8a1.814,1.814,0,0,1,3.627.013h.007V81.8a.9.9,0,0,0,.9.9h.02a.9.9,0,0,0,.9-.9V77.737A.117.117,0,0,1,682.415,77.644Z" transform="translate(998.717 1253.191)" fill="#2d2c2c"/>
  </g>
</svg>
