<svg xmlns="http://www.w3.org/2000/svg" width="28.49" height="28.49" viewBox="0 0 28.49 28.49">
  <g id="Group_1409" data-name="Group 1409" transform="translate(-332.5 -312.5)">
    <path id="Stroke_4" data-name="Stroke 4" d="M.5,14.745C.5,3.652,3.652.5,14.745.5S28.99,3.652,28.99,14.745,25.838,28.99,14.745,28.99.5,25.838.5,14.745Z" transform="translate(332 312)" fill="#acacac" opacity="0.27"/>
    <path id="XMLID_1435_" d="M16.185,74.964l-7.144-4.14v-.308a.977.977,0,0,1,.523-.853,2.153,2.153,0,1,0-3.177-1.895.5.5,0,1,0,1,0,1.152,1.152,0,0,1,1.2-1.152,1.153,1.153,0,0,1,.5,2.166,1.976,1.976,0,0,0-1.048,1.733v.308L.9,74.964a1.8,1.8,0,0,0,.9,3.355H15.284a1.8,1.8,0,0,0,.9-3.355Zm-.9,2.354H1.8a.8.8,0,0,1-.4-1.488l7.142-4.139,7.142,4.139a.8.8,0,0,1-.4,1.488Z" transform="translate(338.205 253.779)" fill="#f5f6fa"/>
  </g>
</svg>
