<svg xmlns="http://www.w3.org/2000/svg" width="12.969" height="12.969" viewBox="0 0 12.969 12.969">
  <g id="Group_1415" data-name="Group 1415" transform="translate(0.001 0)">
    <path id="Path_107" data-name="Path 107" d="M11.828,3.065h1.14V.38a.38.38,0,0,0-.649-.269L.111,12.32a.38.38,0,0,0,.269.649H3.064v-1.14a.38.38,0,1,1,.76,0v1.14h.76v-1.14a.38.38,0,1,1,.76,0v1.14H6.1v-1.14a.38.38,0,1,1,.76,0v1.14h.76v-1.14a.38.38,0,1,1,.76,0v1.14h.76v-1.14a.38.38,0,1,1,.76,0v1.14h2.685a.38.38,0,0,0,.38-.38V9.9h-1.14a.38.38,0,1,1,0-.76h1.14v-.76h-1.14a.38.38,0,1,1,0-.76h1.14v-.76h-1.14a.38.38,0,1,1,0-.76h1.14v-.76h-1.14a.38.38,0,1,1,0-.76h1.14v-.76h-1.14a.38.38,0,1,1,0-.76Zm-1.165,7.219a.38.38,0,0,1-.38.38H5.908a.38.38,0,0,1-.269-.649L10.015,5.64a.38.38,0,0,1,.649.269Zm0,0" fill="#2d2c2c"/>
    <path id="Path_108" data-name="Path 108" d="M69.789,103.055l3.262-3.262,1.612,1.612L71.4,104.667Zm0,0" transform="translate(-68.021 -97.266)" fill="#2d2c2c"/>
    <path id="Path_109" data-name="Path 109" d="M219.789,55.4l.6-.6L222,56.408l-.6.6Zm0,0" transform="translate(-214.223 -53.408)" fill="#2d2c2c"/>
    <path id="Path_110" data-name="Path 110" d="M1.384,252.606a.379.379,0,0,0,.164-.037l2.057-.982a.378.378,0,0,0,.105-.074l.111-.111-1.612-1.612L2.1,249.9a.378.378,0,0,0-.074.1l-.983,2.057a.38.38,0,0,0,.343.543Zm0,0" transform="translate(-0.979 -243.463)" fill="#2d2c2c"/>
    <path id="Path_111" data-name="Path 111" d="M266.734,9.183a1.14,1.14,0,0,0-1.612-1.612l-.334.334L266.4,9.517Zm0,0" transform="translate(-258.082 -7.055)" fill="#2d2c2c"/>
  </g>
</svg>
