<svg xmlns="http://www.w3.org/2000/svg" width="36.499" height="36.499" viewBox="0 0 36.499 36.499">
  <g id="Group_1403" data-name="Group 1403" transform="translate(-323.25 -183.371)">
    <path id="Stroke_4" data-name="Stroke 4" d="M0,17.5C0,4.376,4.376,0,17.5,0S35,4.376,35,17.5,30.623,35,17.5,35,0,30.623,0,17.5Z" transform="translate(324 184.121)" fill="#db143d" stroke="#db143d" stroke-linecap="round" stroke-linejoin="round" stroke-miterlimit="10" stroke-width="1.5"/>
    <g id="Iconly_Curved_Profile" data-name="Iconly/Curved/Profile" transform="translate(335 192.4)">
      <g id="Profile" transform="translate(0 0)">
        <path id="Stroke_1" data-name="Stroke 1" d="M6.845,7.3C3.153,7.3,0,6.726,0,4.425S3.133,0,6.845,0c3.692,0,6.845,2.1,6.845,4.4S10.556,7.3,6.845,7.3Z" transform="translate(0 11.962)" fill="#f5f6fa" stroke="#f5f6fa" stroke-linecap="round" stroke-linejoin="round" stroke-miterlimit="10" stroke-width="1.5"/>
        <path id="Stroke_3" data-name="Stroke 3" d="M4.387,8.774a4.372,4.372,0,1,0-.031,0Z" transform="translate(2.45 0)" fill="#f5f6fa" stroke="#f5f6fa" stroke-linecap="round" stroke-linejoin="round" stroke-miterlimit="10" stroke-width="1.5"/>
      </g>
    </g>
  </g>
</svg>
