<svg xmlns="http://www.w3.org/2000/svg" width="19.499" height="19.499" viewBox="0 0 19.499 19.499">
    <g>
        <path fill="#fcc155" d="M11.6 18.46c-.6-.749-.6-1.77-.6-3.185l.75-.025H11c0-2.87.181-4.25 4.25-4.25s4.25 1.38 4.25 4.25c0 1.429 0 2.461-.6 3.21-.694.863-1.959 1.04-3.646 1.04s-2.954-.177-3.654-1.04zm.9-3.21v.025a4.516 4.516 0 0 0 .271 2.245c.265.329 1.052.481 2.479.481s2.214-.153 2.48-.481a4.512 4.512 0 0 0 .27-2.246c0-2.564 0-2.774-2.75-2.774s-2.75.208-2.75 2.75zM.6 18.46c-.6-.749-.6-1.77-.6-3.185l.75-.025H0C0 12.38.181 11 4.25 11s4.25 1.38 4.25 4.25c0 1.429 0 2.461-.6 3.21-.695.863-1.96 1.04-3.646 1.04S1.3 19.323.6 18.46zm.9-3.21v.025a4.516 4.516 0 0 0 .271 2.245c.264.329 1.052.481 2.479.481s2.214-.153 2.479-.481A4.512 4.512 0 0 0 7 15.274C7 12.71 7 12.5 4.25 12.5s-2.75.208-2.75 2.75zm10.1-7.79c-.6-.749-.6-1.77-.6-3.185l.75-.025H11C11 1.38 11.181 0 15.25 0s4.25 1.38 4.25 4.25c0 1.429 0 2.462-.6 3.21-.7.863-1.964 1.04-3.65 1.04s-2.95-.177-3.65-1.04zm.9-3.21v.025a4.516 4.516 0 0 0 .271 2.245c.265.328 1.052.481 2.479.481s2.214-.153 2.48-.482A4.512 4.512 0 0 0 18 4.274C18 1.71 18 1.5 15.25 1.5s-2.75.208-2.75 2.75zM.6 7.46C0 6.711 0 5.69 0 4.275l.75-.025H0C0 1.38.181 0 4.25 0S8.5 1.38 8.5 4.25c0 1.429 0 2.462-.6 3.21-.7.863-1.964 1.04-3.65 1.04S1.3 8.323.6 7.46zm.9-3.21v.025a4.516 4.516 0 0 0 .271 2.245c.264.327 1.052.48 2.479.48s2.214-.153 2.479-.482A4.512 4.512 0 0 0 7 4.274C7 1.71 7 1.5 4.25 1.5S1.5 1.708 1.5 4.25z"/>
    </g>
</svg>
