<svg xmlns="http://www.w3.org/2000/svg" width="31.5" height="31.5" viewBox="0 0 31.5 31.5">
  <g id="locations" transform="translate(0.75 0.75)">
    <path id="Stroke_4" data-name="Stroke 4" d="M0,15C0,3.751,3.751,0,15,0S30,3.751,30,15,26.249,30,15,30,0,26.249,0,15Z" fill="none" stroke="#2d2c2c" stroke-linecap="round" stroke-linejoin="round" stroke-miterlimit="10" stroke-width="1.5"/>
    <g id="Group_1194" data-name="Group 1194" transform="translate(8.412 6.852)">
      <g id="Iconly_Bulk_Location" data-name="Iconly/Bulk/Location">
        <g id="Location">
          <path id="Path_34175" d="M7.006,16.071h0a.857.857,0,0,1-.388-.112A18.018,18.018,0,0,1,1.8,11.66,8.456,8.456,0,0,1,0,6.745,6.719,6.719,0,0,1,3.514.886a7.163,7.163,0,0,1,7,.055,7.016,7.016,0,0,1,2.512,2.527,6.739,6.739,0,0,1,.9,3.4,9.732,9.732,0,0,1-3.175,6.4,18.5,18.5,0,0,1-3.342,2.666,1.215,1.215,0,0,1-.4.136ZM6.957,4.583a2.39,2.39,0,0,0-1.67.668,2.229,2.229,0,0,0-.517,2.5A2.362,2.362,0,0,0,6.956,9.162h.015A2.374,2.374,0,0,0,8.63,8.5a2.25,2.25,0,0,0,.691-1.618A2.283,2.283,0,0,0,7.867,4.759,2.419,2.419,0,0,0,6.957,4.583Z" transform="translate(0 0)" fill="#2d2c2c"/>
        </g>
      </g>
    </g>
  </g>
</svg>
