<svg xmlns="http://www.w3.org/2000/svg" width="23.219" height="29.794" viewBox="0 0 23.219 29.794">
    <g>
        <g>
            <g>
                <path d="M22.9-.334C2.7-.72 0-.334 0-.334V15.2c0-1.044.589-1.689 2.138-2.411l21.078-8.2z" opacity="0.6" transform="translate(-94.314 -0.033) translate(101.533 0.539) translate(-7.219) translate(0 0)"/>
                <path d="M16.064 26.122H7.1c-3.917 0-7.1-1.547-7.1-5.5v-8.59c0-1.044.589-1.689 2.138-2.411L21.005.2a1.467 1.467 0 0 1 2.035.59 1.53 1.53 0 0 1 .179.709v19.118c-.038 3.958-3.225 5.505-7.155 5.505z" transform="translate(-94.314 -0.033) translate(101.533 0.539) translate(-7.219) translate(0 3.167)"/>
            </g>
        </g>
        <g>
            <g>
                <path fill="#fff" d="M0 8.792V3.236A3 3 0 0 1 3.151 0H7.8a3.036 3.036 0 0 1 3.176 3.236v5.556a3.006 3.006 0 0 1-3.151 3.236H3.176A3.036 3.036 0 0 1 0 8.792zM3.154.909A2.111 2.111 0 0 0 .906 3.236v5.556a2.114 2.114 0 0 0 2.269 2.331h4.646a2.11 2.11 0 0 0 2.247-2.328V3.236A2.113 2.113 0 0 0 7.8.906zm.167 8.138a.453.453 0 1 1 0-.906h4.361a.453.453 0 1 1 0 .906zm0-2.53a.453.453 0 1 1 0-.906h4.361a.453.453 0 1 1 0 .906zm3-2.523a.453.453 0 1 1 0-.906h1.664a.453.453 0 1 1 0 .906z" transform="translate(-94.314 -0.033) translate(100.346 13.242) translate(0 0) translate(0 0)"/>
            </g>
        </g>
    </g>
</svg>
