<svg xmlns="http://www.w3.org/2000/svg" width="10.58" height="13.836" viewBox="0 0 10.58 13.836">
  <path id="Path_103" data-name="Path 103" d="M65.524,0a5.3,5.3,0,0,0-5.29,5.29v4.883a1.221,1.221,0,1,0,2.442,0V6.1a1.222,1.222,0,0,0-1.221-1.221,1.207,1.207,0,0,0-.39.07,4.472,4.472,0,0,1,8.918,0,1.2,1.2,0,0,0-.39-.066A1.222,1.222,0,0,0,68.373,6.1v4.069a1.222,1.222,0,0,0,1.221,1.221A1.207,1.207,0,0,0,70,11.319V11.8a.407.407,0,0,1-.407.407H66.67a1.221,1.221,0,1,0,0,.814h2.924A1.222,1.222,0,0,0,70.814,11.8V5.29A5.3,5.3,0,0,0,65.524,0Zm0,0" transform="translate(-60.234)" fill="#2d2c2c"/>
</svg>
