<svg xmlns="http://www.w3.org/2000/svg" width="13" height="13.958" viewBox="0 0 13 13.958">
  <path id="Path_128" data-name="Path 128" d="M117.765,87.256a10.458,10.458,0,0,0-1.773-3.951,13.017,13.017,0,0,0-1.359-1.711c-.447-.5-.975-1.043-1.6-1.646-.078-.076-.175-.171-.241-.238-.113-.115-.157-.019-.157-.019l-.131.239-.009.016c-.72,1.331-.844,1.415-.6,1.605-3.624,1.669-4,6.59-3.872,7.2a11.377,11.377,0,0,1-2.976.3.2.2,0,0,0-.2.2v2.764a.2.2,0,0,0,.208.2,13.137,13.137,0,0,0,4.8-1.066c1.195-.465.968-.443,2.039,0,.185.085.391.169.6.275a6.392,6.392,0,0,1,2.142,1.542c.055.057.11.13.166.19l.332.4a.182.182,0,0,0,.28,0l.332-.4c.1-.117.175-.216.251-.317a8.286,8.286,0,0,0,1.854-4.259A6.3,6.3,0,0,0,117.765,87.256Zm-8.59-1.121a2.463,2.463,0,0,1,.7-1.1c.6-.655,1.565-1.5,2.06-.782a2.034,2.034,0,0,1,.556.95,5.179,5.179,0,0,1,.1,1.415.362.362,0,0,0-.1.084C111.338,87.529,109.031,87.635,109.176,86.135Zm6.961,3.1a1.2,1.2,0,0,0-.144.084,2.392,2.392,0,0,1-1.359-.084,13.073,13.073,0,0,1-1.709-.676c-.247-.106-.391-.19-.433-.275a.2.2,0,0,1,0-.211,8.913,8.913,0,0,0,1.092-1.985,3.854,3.854,0,0,0,.185-1.056c0-.465.041-1.056.412-.317a7.612,7.612,0,0,0,.453.782,22.5,22.5,0,0,1,1.359,2.514C116.261,88.648,116.384,89.134,116.137,89.24Z" transform="translate(-104.85 -79.654)" fill="#2d2c2c"/>
</svg>
