<svg xmlns="http://www.w3.org/2000/svg" width="13" height="15" viewBox="0 0 13 15">
  <path id="Path_34175" d="M6.538,15h0a.8.8,0,0,1-.363-.1,16.817,16.817,0,0,1-4.493-4.013A7.892,7.892,0,0,1,0,6.3,6.271,6.271,0,0,1,3.28.827,6.685,6.685,0,0,1,9.812.878a6.548,6.548,0,0,1,2.345,2.359A6.29,6.29,0,0,1,13,6.407a9.083,9.083,0,0,1-2.964,5.978,17.27,17.27,0,0,1-3.119,2.489A1.134,1.134,0,0,1,6.539,15ZM6.493,4.278A2.23,2.23,0,0,0,4.934,4.9a2.081,2.081,0,0,0-.482,2.329A2.2,2.2,0,0,0,6.493,8.552h.014a2.216,2.216,0,0,0,1.548-.619A2.1,2.1,0,0,0,8.7,6.422a2.131,2.131,0,0,0-1.358-1.98A2.257,2.257,0,0,0,6.493,4.278Z" transform="translate(0 0)" fill="#2d2c2c"/>
</svg>
