<svg xmlns="http://www.w3.org/2000/svg" width="31.5" height="31.5" viewBox="0 0 31.5 31.5">
  <g id="pricing" transform="translate(0.75 0.75)">
    <path id="Stroke_4" data-name="Stroke 4" d="M0,15C0,3.751,3.751,0,15,0S30,3.751,30,15,26.249,30,15,30,0,26.249,0,15Z" fill="none" stroke="#2d2c2c" stroke-linecap="round" stroke-linejoin="round" stroke-miterlimit="10" stroke-width="1.5"/>
    <path id="Subtraction_12" data-name="Subtraction 12" d="M13.486,15.308H3.523A3.511,3.511,0,0,1,0,11.817V9.542A.636.636,0,0,1,.638,8.91,1.262,1.262,0,0,0,1.9,7.655,1.2,1.2,0,0,0,.638,6.473a.644.644,0,0,1-.451-.184A.635.635,0,0,1,0,5.841V3.49A3.511,3.511,0,0,1,3.524,0h9.96a3.511,3.511,0,0,1,3.523,3.49V5.767a.626.626,0,0,1-.187.447.641.641,0,0,1-.451.184,1.256,1.256,0,1,0,0,2.511.636.636,0,0,1,.638.632v2.275A3.511,3.511,0,0,1,13.486,15.308ZM7.107,8.8H8.878L10.1,11h1.968L10.429,8.461A2.378,2.378,0,0,0,11.5,7.5a2.986,2.986,0,0,0,.368-1.523A2.455,2.455,0,0,0,11.046,4a3.519,3.519,0,0,0-2.332-.7H5.369V11H7.107V8.8ZM8.714,7.349H7.107V4.743H8.714a1.711,1.711,0,0,1,1.116.324,1.187,1.187,0,0,1,.391.963,1.234,1.234,0,0,1-.391.985A1.673,1.673,0,0,1,8.714,7.349Z" transform="translate(6.053 7.92)" fill="#2d2c2c" stroke="rgba(0,0,0,0)" stroke-miterlimit="10" stroke-width="1"/>
  </g>
</svg>
