<svg id="profile" xmlns="http://www.w3.org/2000/svg" width="30" height="30" viewBox="0 0 30 30">
  <g id="Group_1178" data-name="Group 1178">
    <g id="Group_816" data-name="Group 816" transform="translate(0 0)">
      <path id="Stroke_4" data-name="Stroke 4" d="M0,15C0,3.751,3.751,0,15,0S30,3.751,30,15,26.249,30,15,30,0,26.249,0,15Z" transform="translate(0 0)" fill="#db143d"/>
      <g id="Iconly_Curved_Profile" data-name="Iconly/Curved/Profile" transform="translate(9.097 6.848)">
        <g id="Profile-2" data-name="Profile">
          <path id="Stroke_1" data-name="Stroke 1" d="M5.66,6.037C2.607,6.037,0,5.562,0,3.659S2.591,0,5.66,0c3.053,0,5.66,1.739,5.66,3.642S8.73,6.037,5.66,6.037Z" transform="translate(0 9.892)" fill="#f5f6fa" stroke="#f5f6fa" stroke-linecap="round" stroke-linejoin="round" stroke-miterlimit="10" stroke-width="1.5"/>
          <path id="Stroke_3" data-name="Stroke 3" d="M3.628,7.256a3.615,3.615,0,1,0-.026,0Z" transform="translate(2.026)" fill="#f5f6fa" stroke="#f5f6fa" stroke-linecap="round" stroke-linejoin="round" stroke-miterlimit="10" stroke-width="1.5"/>
        </g>
      </g>
    </g>
  </g>
</svg>
