<svg xmlns="http://www.w3.org/2000/svg" width="21.326" height="20.632" viewBox="0 0 21.326 20.632">
    <g>
        <path fill="#db143d" stroke="#db143d" stroke-width="0.5px" d="M9.484 7.924a5.473 5.473 0 0 0-.531-.467l-.7-4.035h.758a.405.405 0 0 0 .405-.405v-.991A2.029 2.029 0 0 0 7.388 0H3.875a2.029 2.029 0 0 0-2.027 2.026v.991a.405.405 0 0 0 .405.405h.777l-.7 4.035a5.512 5.512 0 0 0-.531.467 5.361 5.361 0 0 0-1.584 3.844v.274a.405.405 0 0 0 .405.405h4.615v5.037a.405.405 0 0 0 .81 0v-5.038h4.615a.405.405 0 0 0 .405-.405v-.271a5.363 5.363 0 0 0-1.581-3.846zm-6.825-5.9A1.217 1.217 0 0 1 3.875.811h3.513A1.217 1.217 0 0 1 8.6 2.026v.585H2.659zm1.194 1.4h3.575l.6 3.463a5.528 5.528 0 0 0-4.779 0zm-2.826 8.212A4.625 4.625 0 0 1 8.911 8.5a4.556 4.556 0 0 1 1.344 3.138zm0 0" transform="translate(13.854 0.353) rotate(49) translate(-0.215 0)"/>
    </g>
</svg>
