<svg xmlns="http://www.w3.org/2000/svg" width="30" height="30" viewBox="0 0 30 30">
  <g id="Group_1405" data-name="Group 1405" transform="translate(0 0)">
    <g id="Group_828" data-name="Group 828">
      <g id="Group_826" data-name="Group 826">
        <g id="Group_1403" data-name="Group 1403">
          <path id="Stroke_4" data-name="Stroke 4" d="M.5,15.5C.5,3.819,3.819.5,15.5.5s15,3.319,15,15-3.319,15-15,15S.5,27.181.5,15.5Z" transform="translate(-0.5 -0.5)" fill="#2d2c2c"/>
        </g>
      </g>
    </g>
    <g id="Group_798" data-name="Group 798" transform="translate(4.184 10.285)">
      <g id="Group_796" data-name="Group 796">
        <path id="Path_89" data-name="Path 89" d="M121.292,238.455a20.157,20.157,0,0,0-.113-2.2l-.024-.231.2-.117.284-.169c-.5-.656-1.248-1.227-1.442-1.712-.183-.458.126-.286.371-.25.148.021.141-.19.141-.19a20.267,20.267,0,0,0-6.326-1.123,9.56,9.56,0,0,0-7.284,2.817s-.189.214-3.61.407a2.123,2.123,0,0,0-2.194,1.617,2.265,2.265,0,0,1,.3-.692h1.261s.419.177-.2.849a5.574,5.574,0,0,1-1.42.1,3.945,3.945,0,0,0-.044.8l1.576.21v.37h.8a1.89,1.89,0,0,1,.087-.206,2.447,2.447,0,0,1,4.663,1h7.083a2.35,2.35,0,0,1,.23-1,2.447,2.447,0,0,1,4.611.527l.535-.68.619.127-.108-.084Zm-6.938-2.263a.1.1,0,0,1-.1.1l-1.243,0a.1.1,0,0,1,0-.2l1.247-.06C114.313,236.036,114.4,236.071,114.354,236.192Zm.676-.614-5.994.012a.39.39,0,0,1-.046.082.538.538,0,0,1-.408.168h-.137a.743.743,0,0,1-.68-.249h-.007s0,0,0-.007-.013-.017-.019-.028c-.075-.15.115-.645.117-.65a.962.962,0,0,1,.506-.6.561.561,0,0,1,.2-.036.421.421,0,0,1,.337.157,8.3,8.3,0,0,1,3.226-1.254,25.217,25.217,0,0,1,2.963-.046Zm4.761.614a.1.1,0,0,1-.1.1l-1.244,0a.1.1,0,0,1,0-.2l1.247-.06C119.749,236.036,119.841,236.071,119.791,236.192Zm-4.386-.6v-2.459s3.223.251,3.885.727c0,0,.08,1.573.661,1.732Z" transform="translate(-101.194 -232.448)" fill="#f5f6fa"/>
      </g>
      <g id="Group_797" data-name="Group 797" transform="translate(0.052 4.899)">
        <path id="Path_90" data-name="Path 90" d="M101.39,247.059c-.016.066-.031.132-.042.2C101.359,247.191,101.373,247.125,101.39,247.059Z" transform="translate(-101.348 -247.059)" fill="#f5f6fa"/>
      </g>
    </g>
    <g id="Group_801" data-name="Group 801" transform="translate(18.744 15.52)">
      <path id="Path_93" data-name="Path 93" d="M146.714,248.056a2.1,2.1,0,1,0,2.1,2.1A2.1,2.1,0,0,0,146.714,248.056Zm0,3.322a1.224,1.224,0,1,1,1.224-1.224A1.226,1.226,0,0,1,146.714,251.378Z" transform="translate(-144.616 -248.056)" fill="#f5f6fa"/>
    </g>
    <path id="Path_95" data-name="Path 95" d="M111,248.056a2.1,2.1,0,1,0,2.1,2.1A2.1,2.1,0,0,0,111,248.056Zm0,3.322a1.224,1.224,0,1,1,1.224-1.224A1.226,1.226,0,0,1,111,251.378Z" transform="translate(-102.131 -232.537)" fill="#f5f6fa"/>
  </g>
</svg>
