<svg xmlns="http://www.w3.org/2000/svg" width="31.5" height="31.5" viewBox="0 0 31.5 31.5">
  <g id="rules" transform="translate(0.75 0.75)">
    <path id="Stroke_4" data-name="Stroke 4" d="M0,15C0,3.751,3.751,0,15,0S30,3.751,30,15,26.249,30,15,30,0,26.249,0,15Z" fill="none" stroke="#2d2c2c" stroke-linecap="round" stroke-linejoin="round" stroke-miterlimit="10" stroke-width="1.5"/>
    <g id="Group_1191" data-name="Group 1191" transform="translate(7.375 7.922)">
      <g id="rule" transform="translate(0 0)">
        <path id="Path_107" data-name="Path 107" d="M12.673,3.284h1.221V.407A.407.407,0,0,0,13.2.119L.119,13.2a.407.407,0,0,0,.288.695H3.283V12.674a.407.407,0,1,1,.814,0v1.221h.814V12.674a.407.407,0,1,1,.814,0v1.221H6.54V12.674a.407.407,0,1,1,.814,0v1.221h.814V12.674a.407.407,0,1,1,.814,0v1.221H9.8V12.674a.407.407,0,1,1,.814,0v1.221h2.877a.407.407,0,0,0,.407-.407V10.611H12.673a.407.407,0,1,1,0-.814h1.221V8.983H12.673a.407.407,0,1,1,0-.814h1.221V7.355H12.673a.407.407,0,1,1,0-.814h1.221V5.726H12.673a.407.407,0,1,1,0-.814h1.221V4.1H12.673a.407.407,0,1,1,0-.814Zm-1.248,7.734a.407.407,0,0,1-.407.407H6.33a.407.407,0,0,1-.288-.695L10.73,6.043a.407.407,0,0,1,.695.288Zm0,0" transform="translate(0.001 0)" fill="#2d2c2c"/>
        <path id="Path_108" data-name="Path 108" d="M69.789,103.288l3.5-3.5,1.727,1.727-3.5,3.5Zm0,0" transform="translate(-67.895 -97.085)" fill="#2d2c2c"/>
        <path id="Path_109" data-name="Path 109" d="M219.789,55.442l.646-.645,1.727,1.727-.646.646Zm0,0" transform="translate(-213.824 -53.31)" fill="#2d2c2c"/>
        <path id="Path_110" data-name="Path 110" d="M1.411,252.807a.406.406,0,0,0,.175-.04l2.2-1.053a.406.406,0,0,0,.113-.08l.119-.119L2.3,249.789l-.119.119a.405.405,0,0,0-.08.112l-1.053,2.2a.407.407,0,0,0,.367.582Zm0,0" transform="translate(-0.977 -243.01)" fill="#2d2c2c"/>
        <path id="Path_111" data-name="Path 111" d="M266.873,9.322A1.221,1.221,0,0,0,265.146,7.6l-.358.358,1.727,1.727Zm0,0" transform="translate(-257.603 -7.042)" fill="#2d2c2c"/>
      </g>
    </g>
  </g>
</svg>
