<svg xmlns="http://www.w3.org/2000/svg" width="16.875" height="15.287" viewBox="0 0 16.875 15.287">
  <path id="Subtraction_10" data-name="Subtraction 10" d="M13.586,15.287h-9.3A3.277,3.277,0,0,1,1,12.029V9.905a.593.593,0,0,1,.595-.59A1.179,1.179,0,0,0,2.777,8.144a1.12,1.12,0,0,0-1.183-1.1.6.6,0,0,1-.42-.172A.592.592,0,0,1,1,6.451V4.258A3.277,3.277,0,0,1,4.289,1h9.3a3.277,3.277,0,0,1,3.289,3.258V6.383A.592.592,0,0,1,16.7,6.8a.6.6,0,0,1-.42.172,1.172,1.172,0,1,0,0,2.344.593.593,0,0,1,.595.59v2.124A3.277,3.277,0,0,1,13.586,15.287ZM7.56,9.725H8.3a1.586,1.586,0,0,1,.455.061,1.2,1.2,0,0,1,.375.2,1.962,1.962,0,0,1,.341.346,4.578,4.578,0,0,1,.344.513L11.1,13h1.075l-1.444-2.315c-.115-.185-.2-.326-.283-.443A3.344,3.344,0,0,0,10.2,9.9a1.9,1.9,0,0,0-.271-.261,1.69,1.69,0,0,0-.336-.2V9.424a2.727,2.727,0,0,0,.706-.287,2.082,2.082,0,0,0,.537-.448,1.929,1.929,0,0,0,.344-.6,2.161,2.161,0,0,0,.121-.738,2.133,2.133,0,0,0-.177-.9,1.79,1.79,0,0,0-.491-.642,2.1,2.1,0,0,0-.741-.384A3.315,3.315,0,0,0,8.956,5.3h-2.3V13h.9V9.726Zm1.224-.816H7.56V6.115H8.795a1.727,1.727,0,0,1,1.157.346,1.212,1.212,0,0,1,.4.964,1.582,1.582,0,0,1-.118.621,1.338,1.338,0,0,1-.328.467,1.463,1.463,0,0,1-.5.293A1.86,1.86,0,0,1,8.784,8.909Z" transform="translate(-0.5 -0.5)" fill="#2d2c2c" stroke="rgba(0,0,0,0)" stroke-miterlimit="10" stroke-width="1"/>
</svg>
