<svg id="travel" xmlns="http://www.w3.org/2000/svg" width="30" height="30" viewBox="0 0 30 30">
  <g id="Group_1119" data-name="Group 1119">
    <g id="Group_828" data-name="Group 828" transform="translate(0 0)">
      <g id="Group_826" data-name="Group 826" transform="translate(0 0)">
        <path id="Stroke_4" data-name="Stroke 4" d="M.5,15.5C.5,3.819,3.819.5,15.5.5s15,3.319,15,15-3.319,15-15,15S.5,27.181.5,15.5Z" transform="translate(-0.5 -0.5)" fill="#2d2c2c"/>
        <g id="world" transform="translate(6.829 7.116)">
          <path id="Path_55" data-name="Path 55" d="M52.173,72.441A4.523,4.523,0,0,1,49.2,70.976c-.438-.392-.817-.728-1.121-.73h-.35l.02-.35a5.679,5.679,0,0,1,5.666-5.361q.177,0,.35.01h.118l.087.08a1.8,1.8,0,0,1,.057,2.833,11.828,11.828,0,0,1-1.23,1.15,5.24,5.24,0,0,0-1.31,1.373.54.54,0,0,0-.008.537,1.685,1.685,0,0,0,.808.59,3.738,3.738,0,0,1,.911.515h.045l.2.26-.107.412h-.2a2.541,2.541,0,0,1-.86.14Z" transform="translate(-45.736 -62.135)" fill="#f5f6fa"/>
          <path id="Path_56" data-name="Path 56" d="M53.491,74.742a5.679,5.679,0,0,1-5.676-5.479l-.012-.355.355.01c.385.01.762.347,1.238.772a4.3,4.3,0,0,0,2.849,1.416h.1a2.242,2.242,0,0,0,.848-.15c.063-.033.1-.068.108-.1s.013-.053-.055-.137a2.754,2.754,0,0,0-.963-.585,1.921,1.921,0,0,1-.8-.577.763.763,0,0,1-.077-.788,5.074,5.074,0,0,1,1.356-1.438,11.794,11.794,0,0,0,1.2-1.126c.74-.843.833-1.5.333-2.166l-.523-.7.856.167a5.646,5.646,0,0,1,2.295,1.033l.185.14-.433,1.435.46.46.675-1.225.307.432a5.64,5.64,0,0,1,.916,2.058l.055.252-.228.115c-.886.45-.916.7-.973,1.166-.062.5-.145,1.2-1.631,2.443a4.282,4.282,0,0,0-1.033,1.138,1.878,1.878,0,0,0-.212,1.266l.052.318-.307.07A5.706,5.706,0,0,1,53.491,74.742Z" transform="translate(-45.813 -60.985)" fill="none"/>
          <path id="Path_57" data-name="Path 57" d="M249.666,16.647l.282-.931-1.193-1.123-1.316,2.375-.711-.712.845-2.781-1.013-.955a.682.682,0,0,1-.175-.767.854.854,0,0,1,.452-.452h.017a.682.682,0,0,1,.243-.045.692.692,0,0,1,.5.227l.953,1.011,2.784-.841.711.712-2.374,1.311,1.123,1.191.933-.282.578.578-1.131.628-.2.1-.092.187-.641,1.146Z" transform="translate(-236.071 -11.075)" fill="#f5f6fa"/>
          <path id="Path_58" data-name="Path 58" d="M215.52,178.7a2.061,2.061,0,0,1,.243-1.333,4.449,4.449,0,0,1,1.09-1.193c1.43-1.193,1.5-1.82,1.566-2.325.055-.455.153-.808.93-1.235l.432-.237.053.49a5.754,5.754,0,0,1,.042.7,5.642,5.642,0,0,1-1.666,4.016,5.7,5.7,0,0,1-2.251,1.383l-.378.123Z" transform="translate(-206.518 -165.483)" fill="#f5f6fa"/>
          <g id="Group_767" data-name="Group 767" transform="translate(0 0)">
            <path id="Path_59" data-name="Path 59" d="M52.562,321.852a.25.25,0,0,0,0,.353,6.368,6.368,0,0,0,.52.472.25.25,0,0,0,.354-.353l-.02-.018-.017-.013c-.167-.138-.333-.287-.487-.44A.25.25,0,0,0,52.562,321.852Z" transform="translate(-50.302 -308.663)" fill="#f5f6fa"/>
            <path id="Path_60" data-name="Path 60" d="M1.441,157.107h.032a.25.25,0,0,0,.248-.22c.027-.217.063-.435.11-.647a.25.25,0,1,0-.482-.1c-.05.228-.088.46-.117.692A.25.25,0,0,0,1.441,157.107Z" transform="translate(-1.179 -149.69)" fill="#f5f6fa"/>
            <path id="Path_61" data-name="Path 61" d="M25.273,286.558a.25.25,0,0,0-.087.343h0c.12.2.25.4.388.585a.25.25,0,0,0,.4-.295c-.128-.177-.25-.36-.362-.547a.25.25,0,0,0-.343-.087Z" transform="translate(-24.103 -274.874)" fill="#f5f6fa"/>
            <path id="Path_62" data-name="Path 62" d="M7.172,245.616a.25.25,0,0,0-.167.31c.067.223.143.447.23.667a.254.254,0,1,0,.472-.188h0c-.08-.2-.153-.41-.215-.62a.25.25,0,0,0-.31-.167Z" transform="translate(-6.704 -235.663)" fill="#f5f6fa"/>
            <path id="Path_63" data-name="Path 63" d="M12.48,115.853a.25.25,0,0,0,.325-.139h0a5.99,5.99,0,0,1,.268-.6.25.25,0,1,0-.447-.225h0c-.1.208-.2.423-.287.642A.25.25,0,0,0,12.48,115.853Z" transform="translate(-11.81 -110.26)" fill="#f5f6fa"/>
            <path id="Path_64" data-name="Path 64" d="M.3,202.686H.337a.25.25,0,0,0,.217-.279h0c-.027-.217-.045-.437-.053-.653a.25.25,0,1,0-.5.018,5.466,5.466,0,0,0,.057.7A.25.25,0,0,0,.3,202.686Z" transform="translate(0 -193.405)" fill="#f5f6fa"/>
            <path id="Path_65" data-name="Path 65" d="M143.524,17.939h.048c.215-.042.433-.073.65-.095a.252.252,0,0,0-.017-.5l-.032,0c-.232.023-.465.057-.695.1a.252.252,0,1,0,.013.5l.034,0Z" transform="translate(-137.267 -16.906)" fill="#f5f6fa"/>
            <path id="Path_66" data-name="Path 66" d="M33.752,78.408a.25.25,0,0,0,.2-.1c.128-.177.265-.35.408-.513A.252.252,0,0,0,34,77.444l-.013.014a5.973,5.973,0,0,0-.437.55.25.25,0,0,0,.2.4Z" transform="translate(-32.107 -74.431)" fill="#f5f6fa"/>
            <path id="Path_67" data-name="Path 67" d="M189.681,17.219h.038a.251.251,0,1,0,.037-.5c-.23-.035-.465-.06-.7-.073a.25.25,0,1,0-.03.5C189.248,17.162,189.467,17.185,189.681,17.219Z" transform="translate(-180.928 -16.239)" fill="#f5f6fa"/>
            <path id="Path_68" data-name="Path 68" d="M64.447,48.873c.167-.14.343-.273.523-.4a.25.25,0,0,0-.283-.412c-.192.132-.38.275-.56.423a.25.25,0,1,0,.32.385Z" transform="translate(-61.369 -46.313)" fill="#f5f6fa"/>
            <path id="Path_69" data-name="Path 69" d="M102.06,28a.249.249,0,0,0,.107-.025c.2-.093.4-.178.6-.253a.25.25,0,0,0-.132-.482l-.035.012a6.221,6.221,0,0,0-.647.272.25.25,0,0,0,.107.477Z" transform="translate(-97.572 -26.39)" fill="#f5f6fa"/>
            <path id="Path_70" data-name="Path 70" d="M173.5,373.019a.25.25,0,1,0-.013.5h.208c.167,0,.333,0,.49-.015a.25.25,0,1,0-.032-.5A6.17,6.17,0,0,1,173.5,373.019Z" transform="translate(-166.025 -357.753)" fill="#f5f6fa"/>
            <path id="Path_71" data-name="Path 71" d="M346.574,240.277a.25.25,0,0,0,.32-.151h0c.078-.22.147-.445.2-.667a.25.25,0,1,0-.477-.15.288.288,0,0,0-.008.033c-.053.212-.118.422-.192.627A.25.25,0,0,0,346.574,240.277Z" transform="translate(-331.98 -229.459)" fill="#f5f6fa"/>
            <path id="Path_72" data-name="Path 72" d="M351.2,151.34h.042a.25.25,0,0,0,.207-.287c-.038-.23-.087-.462-.145-.687a.25.25,0,0,0-.483.127c.055.21.1.427.137.642A.25.25,0,0,0,351.2,151.34Z" transform="translate(-336.204 -144.22)" fill="#f5f6fa"/>
            <path id="Path_73" data-name="Path 73" d="M56.186,7.33l-2.654.8-.893-.948a.808.808,0,0,0-.92-.218H51.7a.983.983,0,0,0-.535.535.9.9,0,0,0-.053.2l-.1-.035a.25.25,0,1,0-.153.477h0c.128.042.257.088.385.137a.955.955,0,0,0,.135.167l.945.893-.27.891h0a5.872,5.872,0,1,0,1.241,1.2l.427-.77.99.933-.238.788a.242.242,0,0,0,.055.247s.488.483.5.5a.242.242,0,0,0,.331-.084l0,0h0l.652-1.195L57.19,11.2a.243.243,0,0,0,.072-.392l-.438-.465a.242.242,0,0,0-.242-.06l-.8.242-.933-.99,2.095-1.166a.243.243,0,0,0,.072-.392l-.588-.588A.244.244,0,0,0,56.186,7.33ZM44.868,11.2a5.351,5.351,0,0,1,3.791-1.566q.167,0,.333.01a1.5,1.5,0,0,1,.033,2.383,11.688,11.688,0,0,1-1.2,1.106,5.265,5.265,0,0,0-1.4,1.5c-.257.58-.068,1.1.968,1.563a2.724,2.724,0,0,1,.91.543c.015.018.03,0,.027,0a.1.1,0,0,0-.033.008,2.071,2.071,0,0,1-.787.135A4.057,4.057,0,0,1,44.66,15.51c-.5-.445-.915-.815-1.346-.818A5.351,5.351,0,0,1,44.868,11.2ZM54.033,15a5.372,5.372,0,0,1-3.708,5.1,1.749,1.749,0,0,1,.2-1.135,4.13,4.13,0,0,1,1-1.1c1.538-1.283,1.625-2,1.691-2.551.042-.348.073-.608.762-.986a5.432,5.432,0,0,1,.042.667Zm-.312-1.8a5.323,5.323,0,0,1,.183.642c-1.048.533-1.095.913-1.158,1.431-.057.467-.13,1.076-1.52,2.236A4.556,4.556,0,0,0,50.11,18.74a2.21,2.21,0,0,0-.25,1.488A5.369,5.369,0,0,1,43.3,15.184c.265,0,.608.315,1.03.69a4.5,4.5,0,0,0,3.194,1.5,2.5,2.5,0,0,0,1-.19.5.5,0,0,0,.277-.313.476.476,0,0,0-.12-.435,3.112,3.112,0,0,0-1.09-.682c-.7-.312-.858-.615-.72-.925A5.182,5.182,0,0,1,48.142,13.5a12.13,12.13,0,0,0,1.251-1.166c.7-.793,1.055-1.666.347-2.6a5.334,5.334,0,0,1,2.166.985l-.383,1.265a.243.243,0,0,0,.058.247s.622.617.642.628a.242.242,0,0,0,.331-.084l0,0h0l.485-.876A5.36,5.36,0,0,1,53.721,13.192Zm.62-3.933a.242.242,0,0,0-.1.327l0,.007h0c.01.018,1.285,1.375,1.285,1.375a.242.242,0,0,0,.247.065h0l.8-.243.125.125-.75.415-.215.107a.24.24,0,0,0-.11.112h0l-.107.217-.415.75-.122-.133.242-.8a.242.242,0,0,0-.078-.257L53.836,10.09a.242.242,0,0,0-.342,0h0c-.017.018-1.2,2.15-1.2,2.15l-.258-.258.807-2.658a.242.242,0,0,0-.078-.258L51.711,8.09a.347.347,0,0,1-.095-.4.523.523,0,0,1,.272-.27H51.9a.347.347,0,0,1,.39.1l1,1.056a.241.241,0,0,0,.247.067h0l2.666-.8.258.258Z" transform="translate(-40.99 -6.906)" fill="#f5f6fa"/>
            <path id="Path_74" data-name="Path 74" d="M326.911,281a.25.25,0,0,0-.333.1c-.1.192-.22.38-.343.56a.251.251,0,0,0,.41.288c.13-.193.253-.395.367-.6a.25.25,0,0,0-.088-.342Z" transform="translate(-312.6 -269.554)" fill="#f5f6fa"/>
            <path id="Path_75" data-name="Path 75" d="M356.445,195.157c.022-.232.032-.467.032-.7v-.035a.25.25,0,0,0-.25-.248h0a.25.25,0,0,0-.256.243s0,0,0,.005v.038c0,.218-.01.438-.03.657a.25.25,0,0,0,.226.272h.024A.25.25,0,0,0,356.445,195.157Z" transform="translate(-341.111 -186.373)" fill="#f5f6fa"/>
            <path id="Path_76" data-name="Path 76" d="M129.053,366.526a.25.25,0,1,0-.167.472h.03c.223.063.453.118.683.167h.047a.252.252,0,0,0,.081-.5l-.034,0A5.144,5.144,0,0,1,129.053,366.526Z" transform="translate(-123.358 -351.531)" fill="#f5f6fa"/>
            <path id="Path_77" data-name="Path 77" d="M218.623,364.641a4.979,4.979,0,0,1-.632.167.25.25,0,0,0,.11.488c.227-.052.455-.115.677-.187a.25.25,0,0,0-.155-.475v.007Z" transform="translate(-208.723 -349.723)" fill="#f5f6fa"/>
            <path id="Path_78" data-name="Path 78" d="M88,348.833a.25.25,0,1,0-.279.414l.026.015c.2.118.41.228.622.333a.25.25,0,0,0,.213-.453C88.383,349.046,88.188,348.939,88,348.833Z" transform="translate(-83.96 -334.548)" fill="#f5f6fa"/>
            <path id="Path_79" data-name="Path 79" d="M297.231,317.208a6.053,6.053,0,0,1-.47.458.25.25,0,1,0,.333.373c.167-.155.343-.32.5-.49a.25.25,0,0,0-.365-.342Z" transform="translate(-284.319 -304.207)" fill="#f5f6fa"/>
            <path id="Path_80" data-name="Path 80" d="M260.486,345.9c-.183.117-.375.227-.568.333a.25.25,0,1,0,.228.445c.207-.107.412-.225.608-.35a.25.25,0,0,0-.257-.428Z" transform="translate(-248.959 -331.752)" fill="#f5f6fa"/>
          </g>
        </g>
      </g>
    </g>
  </g>
</svg>
