<svg xmlns="http://www.w3.org/2000/svg" xmlns:xlink="http://www.w3.org/1999/xlink" width="127" height="127" viewBox="0 0 127 127">
  <defs>
    <clipPath id="clip-path">
      <rect id="Search_Field" data-name="Search Field" width="127" height="127" rx="15" transform="translate(0.033 0.033)" fill="#bebec1" stroke="#474546" stroke-width="1"/>
    </clipPath>
  </defs>
  <g id="Group_933" data-name="Group 933" transform="translate(-224 -228)">
    <g id="Group_51" data-name="Group 51" transform="translate(0 18)">
      <g id="Group_53" data-name="Group 53" transform="translate(-13.637 3.364)">
        <g id="Mask_Group_1" data-name="Mask Group 1" transform="translate(237.603 206.602)" clip-path="url(#clip-path)">
          <path id="unnamed" d="M0,0H128V127H0Z" transform="translate(0.033 0.033)" fill="rgba(209,209,209,0.41)"/>
          <g id="Group_78" data-name="Group 78" transform="translate(-224.089 -849.587)">
            <g id="Iconly_Light-Outline_Image_2" data-name="Iconly/Light-Outline/Image 2" transform="translate(269 894)" opacity="0.5">
              <g id="Image_2" data-name="Image 2" transform="translate(0 0)">
                <path id="Combined_Shape" data-name="Combined Shape" d="M10.83,38.24C4.352,38.24,0,33.694,0,26.926V11.315C0,4.547,4.352,0,10.83,0H27.409a10.573,10.573,0,0,1,7.686,2.979,11.607,11.607,0,0,1,3.144,8.338V24.692a1.45,1.45,0,0,1,0,.256v1.978c0,6.768-4.355,11.315-10.839,11.315Zm0-2.875H27.4c4.838,0,7.963-3.313,7.963-8.439V25.393c-1.671-1.724-4.594-4.634-7.425-4.634-1.126,0-2.449,1.865-3.619,3.51-1.608,2.263-3.268,4.6-5.771,4.6a11.949,11.949,0,0,1-4.609-1.228c-2.173-.916-3.158-1.209-4.122-.416a26.383,26.383,0,0,0-4.712,5.909A7.739,7.739,0,0,0,10.83,35.365ZM2.875,11.315V26.926A10.337,10.337,0,0,0,3.438,30.4a25.9,25.9,0,0,1,4.553-5.4c2.4-1.973,4.983-.888,7.063-.014a9.553,9.553,0,0,0,3.494,1c1.019,0,2.3-1.8,3.429-3.391,1.57-2.215,3.351-4.722,5.961-4.722,2.864,0,5.458,1.758,7.425,3.5V11.315a8.659,8.659,0,0,0-2.3-6.306,7.769,7.769,0,0,0-5.652-2.134H10.83C6,2.875,2.875,6.189,2.875,11.315ZM8.165,13a4.975,4.975,0,1,1,4.974,4.974A4.98,4.98,0,0,1,8.165,13Zm2.875,0a2.1,2.1,0,1,0,2.1-2.1A2.1,2.1,0,0,0,11.04,13Z" fill="rgba(71,69,70,0.66)"/>
              </g>
            </g>
          </g>
        </g>
      </g>
    </g>
  </g>
</svg>
