<svg xmlns="http://www.w3.org/2000/svg" width="31" height="31" viewBox="0 0 31 31">
    <g>
        <g transform="translate(3.096 2.749) translate(-2.597 -2.248)">
            <rect width="30" height="30" fill="none" stroke="#f5f6fa" rx="9" transform="translate(0.001 0)"/>
            <path fill="#f5f6fa" d="M125.846 92.012a17 17 0 0 0-2.882-6.423 21.16 21.16 0 0 0-2.21-2.781c-.727-.814-1.585-1.695-2.607-2.675-.126-.123-.285-.278-.392-.387-.183-.186-.255-.031-.255-.031l-.213.388-.015.027c-1.171 2.163-1.373 2.3-.971 2.61-5.892 2.713-6.495 10.713-6.294 11.709a18.5 18.5 0 0 1-4.838.483.319.319 0 0 0-.319.319v4.494a.319.319 0 0 0 .337.317 21.357 21.357 0 0 0 7.8-1.733c1.942-.755 1.573-.721 3.315 0 .3.138.636.275.971.446a10.392 10.392 0 0 1 3.482 2.507c.09.092.179.211.269.309l.54.647a.3.3 0 0 0 .455 0l.54-.649c.155-.191.284-.351.407-.515 2.735-3.641 3.012-6.535 3.014-6.923a10.241 10.241 0 0 0-.134-2.139zm-13.964-1.822a4 4 0 0 1 1.138-1.79c.971-1.064 2.545-2.438 3.348-1.271a3.307 3.307 0 0 1 .9 1.545 8.42 8.42 0 0 1 .167 2.3.589.589 0 0 0-.167.137c-1.868 1.345-5.621 1.517-5.386-.921zm11.318 5.047a1.944 1.944 0 0 0-.234.137 3.888 3.888 0 0 1-2.21-.137 21.256 21.256 0 0 1-2.779-1.1c-.4-.172-.636-.309-.7-.446a.317.317 0 0 1 0-.343 14.489 14.489 0 0 0 1.775-3.228 6.265 6.265 0 0 0 .3-1.717c0-.756.067-1.717.67-.515a12.38 12.38 0 0 0 .736 1.271 36.57 36.57 0 0 1 2.21 4.086c.432 1.031.632 1.821.232 1.992z" transform="translate(-100.523 -76.619)"/>
        </g>
    </g>
</svg>
